<svg width="28" height="28" viewBox="0 0 28 28" fill="none" xmlns="http://www.w3.org/2000/svg">
<g clip-path="url(#clip0_2458_425)">
<path d="M22.1667 2.33352H11.6154C10.7266 2.33078 9.84914 2.53253 9.05085 2.92318C8.25256 3.31383 7.55484 3.8829 7.01168 4.58636L0.245016 13.2839C0.0857025 13.4887 -0.000793457 13.7407 -0.000793457 14.0002C-0.000793457 14.2597 0.0857025 14.5117 0.245016 14.7165L7.01168 23.414C7.55484 24.1175 8.25256 24.6865 9.05085 25.0772C9.84914 25.4678 10.7266 25.6696 11.6154 25.6669H22.1667C23.7132 25.665 25.1959 25.0498 26.2894 23.9563C27.383 22.8627 27.9982 21.3801 28 19.8335V8.16686C27.9982 6.62033 27.383 5.13767 26.2894 4.04411C25.1959 2.95055 23.7132 2.33538 22.1667 2.33352ZM25.6667 19.8335C25.6667 20.7618 25.2979 21.652 24.6416 22.3084C23.9852 22.9648 23.0949 23.3335 22.1667 23.3335H11.6154C11.0821 23.3354 10.5555 23.2145 10.0765 22.9802C9.59739 22.7459 9.17866 22.4046 8.85268 21.9825L2.64485 14.0002L8.85268 6.01786C9.17866 5.59581 9.59739 5.25444 10.0765 5.02016C10.5555 4.78589 11.0821 4.665 11.6154 4.66686H22.1667C23.0949 4.66686 23.9852 5.03561 24.6416 5.69198C25.2979 6.34836 25.6667 7.2386 25.6667 8.16686V19.8335ZM20.0749 11.9084L17.983 14.0002L20.0749 16.092C20.1863 16.1996 20.2752 16.3284 20.3363 16.4707C20.3974 16.6131 20.4296 16.7661 20.431 16.9211C20.4323 17.076 20.4028 17.2296 20.3441 17.373C20.2855 17.5163 20.1989 17.6466 20.0893 17.7562C19.9798 17.8657 19.8495 17.9523 19.7061 18.011C19.5627 18.0696 19.4091 18.0992 19.2542 18.0978C19.0993 18.0965 18.9462 18.0643 18.8039 18.0031C18.6615 17.942 18.5328 17.8531 18.4252 17.7417L16.3334 15.6499L14.2415 17.7417C14.0215 17.9542 13.7268 18.0718 13.4209 18.0691C13.115 18.0665 12.8224 17.9438 12.6061 17.7275C12.3898 17.5112 12.2671 17.2186 12.2644 16.9127C12.2617 16.6068 12.3793 16.3121 12.5919 16.092L14.6837 14.0002L12.5919 11.9084C12.3793 11.6883 12.2617 11.3936 12.2644 11.0877C12.2671 10.7818 12.3898 10.4892 12.6061 10.2729C12.8224 10.0566 13.115 9.9339 13.4209 9.93124C13.7268 9.92858 14.0215 10.0462 14.2415 10.2587L16.3334 12.3505L18.4252 10.2587C18.6452 10.0462 18.9399 9.92858 19.2458 9.93124C19.5517 9.9339 19.8443 10.0566 20.0606 10.2729C20.2769 10.4892 20.3996 10.7818 20.4023 11.0877C20.405 11.3936 20.2874 11.6883 20.0749 11.9084Z" fill="#FF6666"/>
</g>
<defs>
<clipPath id="clip0_2458_425">
<rect width="28" height="28" fill="white"/>
</clipPath>
</defs>
</svg>
