<svg width="16" height="17" viewBox="0 0 16 17" xmlns="http://www.w3.org/2000/svg">
<g clip-path="url(#clip0_2099_99)">
<path fill-rule="evenodd" clip-rule="evenodd" d="M8.636 4C8.636 3.86739 8.58332 3.74021 8.48955 3.64645C8.39579 3.55268 8.26861 3.5 8.136 3.5H1.5C1.10218 3.5 0.720644 3.65804 0.43934 3.93934C0.158035 4.22064 0 4.60218 0 5L0 15C0 15.3978 0.158035 15.7794 0.43934 16.0607C0.720644 16.342 1.10218 16.5 1.5 16.5H11.5C11.8978 16.5 12.2794 16.342 12.5607 16.0607C12.842 15.7794 13 15.3978 13 15V8.364C13 8.23139 12.9473 8.10421 12.8536 8.01045C12.7598 7.91668 12.6326 7.864 12.5 7.864C12.3674 7.864 12.2402 7.91668 12.1464 8.01045C12.0527 8.10421 12 8.23139 12 8.364V15C12 15.1326 11.9473 15.2598 11.8536 15.3536C11.7598 15.4473 11.6326 15.5 11.5 15.5H1.5C1.36739 15.5 1.24021 15.4473 1.14645 15.3536C1.05268 15.2598 1 15.1326 1 15V5C1 4.86739 1.05268 4.74021 1.14645 4.64645C1.24021 4.55268 1.36739 4.5 1.5 4.5H8.136C8.26861 4.5 8.39579 4.44732 8.48955 4.35355C8.58332 4.25979 8.636 4.13261 8.636 4Z"/>
<path fill-rule="evenodd" clip-rule="evenodd" d="M15.9999 1C15.9999 0.867392 15.9472 0.740215 15.8535 0.646447C15.7597 0.552678 15.6325 0.5 15.4999 0.5H10.4999C10.3673 0.5 10.2401 0.552678 10.1463 0.646447C10.0526 0.740215 9.9999 0.867392 9.9999 1C9.9999 1.13261 10.0526 1.25979 10.1463 1.35355C10.2401 1.44732 10.3673 1.5 10.4999 1.5H14.2929L6.1459 9.646C6.09941 9.69249 6.06254 9.74768 6.03738 9.80842C6.01222 9.86916 5.99927 9.93426 5.99927 10C5.99927 10.0657 6.01222 10.1308 6.03738 10.1916C6.06254 10.2523 6.09941 10.3075 6.1459 10.354C6.19239 10.4005 6.24758 10.4374 6.30832 10.4625C6.36906 10.4877 6.43416 10.5006 6.4999 10.5006C6.56564 10.5006 6.63074 10.4877 6.69148 10.4625C6.75222 10.4374 6.80741 10.4005 6.8539 10.354L14.9999 2.207V6C14.9999 6.13261 15.0526 6.25979 15.1463 6.35355C15.2401 6.44732 15.3673 6.5 15.4999 6.5C15.6325 6.5 15.7597 6.44732 15.8535 6.35355C15.9472 6.25979 15.9999 6.13261 15.9999 6V1Z"/>
</g>
<defs>
<clipPath id="clip0_2099_99">
<rect width="16" height="16" transform="translate(0 0.5)"/>
</clipPath>
</defs>
</svg>
