<svg width="28" height="28" viewBox="0 0 28 28" fill="none" xmlns="http://www.w3.org/2000/svg">
<g clip-path="url(#clip0_2458_429)">
<path d="M27.1495 10.989C25.34 8.04199 21.224 3.09766 14 3.09766C6.776 3.09766 2.66 8.04199 0.850499 10.989C0.291115 11.8937 -0.00518799 12.9364 -0.00518799 14.0002C-0.00518799 15.0639 0.291115 16.1066 0.850499 17.0113C2.66 19.9583 6.776 24.9027 14 24.9027C21.224 24.9027 25.34 19.9583 27.1495 17.0113C27.7089 16.1066 28.0052 15.0639 28.0052 14.0002C28.0052 12.9364 27.7089 11.8937 27.1495 10.989ZM25.1603 15.7898C23.6063 18.3168 20.0888 22.5693 14 22.5693C7.91116 22.5693 4.39366 18.3168 2.83967 15.7898C2.50732 15.252 2.33129 14.6323 2.33129 14.0002C2.33129 13.368 2.50732 12.7483 2.83967 12.2105C4.39366 9.68349 7.91116 5.43099 14 5.43099C20.0888 5.43099 23.6063 9.67882 25.1603 12.2105C25.4927 12.7483 25.6687 13.368 25.6687 14.0002C25.6687 14.6323 25.4927 15.252 25.1603 15.7898Z" fill="#316BFF"/>
<path d="M14 8.1665C12.8463 8.1665 11.7185 8.50862 10.7592 9.1496C9.79991 9.79057 9.05224 10.7016 8.61073 11.7675C8.16921 12.8334 8.0537 14.0063 8.27878 15.1379C8.50386 16.2694 9.05943 17.3088 9.87523 18.1246C10.691 18.9404 11.7304 19.496 12.862 19.7211C13.9936 19.9462 15.1664 19.8306 16.2323 19.3891C17.2982 18.9476 18.2093 18.2 18.8503 17.2407C19.4912 16.2814 19.8334 15.1536 19.8334 13.9998C19.8315 12.4533 19.2163 10.9707 18.1228 9.87709C17.0292 8.78353 15.5466 8.16836 14 8.1665ZM14 17.4998C13.3078 17.4998 12.6311 17.2946 12.0555 16.91C11.48 16.5254 11.0314 15.9788 10.7664 15.3392C10.5015 14.6997 10.4322 13.996 10.5673 13.317C10.7023 12.6381 11.0357 12.0144 11.5251 11.525C12.0146 11.0355 12.6383 10.7021 13.3172 10.5671C13.9961 10.432 14.6999 10.5014 15.3394 10.7663C15.979 11.0312 16.5256 11.4798 16.9102 12.0553C17.2948 12.6309 17.5 13.3076 17.5 13.9998C17.5 14.9281 17.1313 15.8183 16.4749 16.4747C15.8185 17.1311 14.9283 17.4998 14 17.4998Z" fill="#316BFF"/>
</g>
<defs>
<clipPath id="clip0_2458_429">
<rect width="28" height="28" fill="white"/>
</clipPath>
</defs>
</svg>
