<svg width="20" height="20" viewBox="0 0 20 20" xmlns="http://www.w3.org/2000/svg">
<g clip-path="url(#clip0_2710_1260)">
<path d="M13.292 12.1652C12.9644 11.8543 12.7762 11.415 12.7762 10.9603V7.78343H13.3315C13.6385 7.78343 13.8868 7.53466 13.8868 7.22814C13.8868 6.92162 13.6385 6.67285 13.3315 6.67285H6.66797C6.3609 6.67285 6.11268 6.92162 6.11268 7.22814C6.11268 7.53466 6.3609 7.78343 6.66797 7.78343H7.22326V10.9603C7.22326 11.415 7.03502 11.8543 6.7074 12.1647C5.44855 13.358 3.33623 15.663 3.33623 17.6993C3.33623 18.1779 3.46394 18.6144 3.7166 18.9953C4.1314 19.6239 4.85995 19.9998 5.66456 19.9998H14.3354C15.14 19.9998 15.8686 19.6245 16.2828 18.9959C16.5355 18.6138 16.6638 18.1779 16.6638 17.6993C16.6638 15.663 14.5509 13.358 13.292 12.1652ZM15.3561 18.3839C15.1506 18.696 14.7597 18.8892 14.3354 18.8892H5.66401C5.23976 18.8892 4.84884 18.6955 4.64283 18.3834C4.51067 18.184 4.44625 17.9597 4.44625 17.6993C4.44625 17.1989 4.63339 16.6542 4.92047 16.1128H12.7756C13.0827 16.1128 13.3309 15.864 13.3309 15.5575C13.3309 15.251 13.0827 15.0022 12.7756 15.0022H5.63735C6.27538 14.1487 7.02114 13.3974 7.47092 12.971C8.01899 12.4512 8.33384 11.7188 8.33384 10.9603V7.78343H11.6656V10.9603C11.6656 11.7188 11.9799 12.4518 12.5285 12.9715C13.4381 13.8333 15.5526 16.019 15.5526 17.6998C15.5526 17.9602 15.4888 18.184 15.3561 18.3839Z"/>
<circle cx="11.25" cy="3.50407" r="1.16667" stroke="#316BFF"/>
<circle cx="10" cy="-0.5" r="0.75" stroke="#316BFF"/>
<circle cx="8.08365" cy="2.5" r="0.75" stroke="#316BFF"/>
</g>
<defs>
<clipPath id="clip0_2710_1260">
<rect width="20" height="20" fill="white"/>
</clipPath>
</defs>
</svg>
