<svg width="20" height="20" viewBox="0 0 20 20" fill="none" xmlns="http://www.w3.org/2000/svg">
<g clip-path="url(#clip0_1802_607)">
<path d="M6.66555 10C9.42305 10 11.6655 7.7575 11.6655 5C11.6655 2.2425 9.42305 0 6.66555 0C3.90805 0 1.66555 2.2425 1.66555 5C1.66555 7.7575 3.90805 10 6.66555 10ZM6.66555 1.66667C8.50388 1.66667 9.99888 3.16167 9.99888 5C9.99888 6.83833 8.50388 8.33333 6.66555 8.33333C4.82721 8.33333 3.33221 6.83833 3.33221 5C3.33221 3.16167 4.82721 1.66667 6.66555 1.66667ZM7.49221 12.4483C7.54888 12.905 7.22555 13.3208 6.76805 13.3783C3.85888 13.7417 1.66471 16.2292 1.66471 19.1667C1.66471 19.6267 1.29138 20 0.83138 20C0.37138 20 -0.00195312 19.6267 -0.00195312 19.1667C-0.00195312 15.3908 2.81971 12.1917 6.56138 11.725C7.01305 11.6675 7.43388 11.9917 7.49138 12.4492L7.49221 12.4483ZM18.9122 15.9442L18.1005 15.4758C18.2389 15.0617 18.3322 14.6267 18.3322 14.1658C18.3322 13.705 18.2397 13.27 18.1005 12.8558L18.9122 12.3875C19.3105 12.1575 19.4472 11.6475 19.2172 11.2492C18.9864 10.85 18.4772 10.7133 18.0789 10.9442L17.268 11.4125C16.6805 10.7508 15.898 10.2667 14.9989 10.0842V9.16667C14.9989 8.70667 14.6255 8.33333 14.1655 8.33333C13.7055 8.33333 13.3322 8.70667 13.3322 9.16667V10.0842C12.433 10.2675 11.6505 10.7517 11.063 11.4125L10.2522 10.9442C9.85138 10.7133 9.34388 10.85 9.11388 11.2492C8.88388 11.6483 9.02055 12.1575 9.41888 12.3875L10.2305 12.8558C10.0922 13.27 9.99888 13.705 9.99888 14.1658C9.99888 14.6267 10.0914 15.0617 10.2305 15.4758L9.41888 15.9442C9.02055 16.1742 8.88388 16.6842 9.11388 17.0825C9.26888 17.35 9.54805 17.4992 9.83638 17.4992C9.97721 17.4992 10.1205 17.4633 10.2522 17.3875L11.063 16.9192C11.6505 17.5808 12.433 18.065 13.3322 18.2475V19.165C13.3322 19.625 13.7055 19.9983 14.1655 19.9983C14.6255 19.9983 14.9989 19.625 14.9989 19.165V18.2475C15.898 18.0642 16.6805 17.58 17.268 16.9192L18.0789 17.3875C18.2105 17.4633 18.3539 17.4992 18.4947 17.4992C18.783 17.4992 19.063 17.35 19.2172 17.0825C19.4472 16.6833 19.3105 16.1742 18.9122 15.9442ZM14.1655 16.6658C12.7872 16.6658 11.6655 15.5442 11.6655 14.1658C11.6655 12.7875 12.7872 11.6658 14.1655 11.6658C15.5439 11.6658 16.6655 12.7875 16.6655 14.1658C16.6655 15.5442 15.5439 16.6658 14.1655 16.6658Z" fill="#818181"/>
</g>
<defs>
<clipPath id="clip0_1802_607">
<rect width="20" height="20" fill="white"/>
</clipPath>
</defs>
</svg>
