<svg width="20" height="20" viewBox="0 0 20 20" fill="none" xmlns="http://www.w3.org/2000/svg">
<g clip-path="url(#clip0_1802_356)">
<path d="M10 0C8.02219 0 6.08879 0.58649 4.4443 1.6853C2.79981 2.78412 1.51809 4.3459 0.761209 6.17317C0.00433286 8.00043 -0.193701 10.0111 0.192152 11.9509C0.578004 13.8907 1.53041 15.6725 2.92894 17.0711C4.32746 18.4696 6.10929 19.422 8.0491 19.8079C9.98891 20.1937 11.9996 19.9957 13.8268 19.2388C15.6541 18.4819 17.2159 17.2002 18.3147 15.5557C19.4135 13.9112 20 11.9778 20 10C19.9971 7.34872 18.9426 4.80684 17.0679 2.9321C15.1932 1.05736 12.6513 0.00286757 10 0ZM10 18.3333C8.35183 18.3333 6.74066 17.8446 5.37025 16.9289C3.99984 16.0132 2.93174 14.7117 2.30101 13.189C1.67028 11.6663 1.50525 9.99076 1.82679 8.37425C2.14834 6.75774 2.94201 5.27288 4.10745 4.10744C5.27289 2.94201 6.75774 2.14833 8.37425 1.82679C9.99076 1.50525 11.6663 1.67027 13.189 2.301C14.7118 2.93173 16.0132 3.99984 16.9289 5.37025C17.8446 6.74066 18.3333 8.35182 18.3333 10C18.3309 12.2094 17.4522 14.3276 15.8899 15.8899C14.3276 17.4522 12.2094 18.3309 10 18.3333Z" fill="#818181"/>
<path d="M10.5968 4.21903C10.1163 4.13147 9.62236 4.1506 9.15001 4.27506C8.67766 4.39952 8.23844 4.62628 7.86343 4.93928C7.48841 5.25228 7.18678 5.64388 6.97986 6.08636C6.77294 6.52884 6.6658 7.01139 6.66602 7.49986C6.66602 7.72087 6.75381 7.93284 6.91009 8.08912C7.06637 8.2454 7.27834 8.33319 7.49935 8.33319C7.72036 8.33319 7.93232 8.2454 8.0886 8.08912C8.24489 7.93284 8.33268 7.72087 8.33268 7.49986C8.33247 7.25467 8.38636 7.01246 8.49051 6.79049C8.59466 6.56852 8.74649 6.37227 8.9352 6.21572C9.1239 6.05917 9.34482 5.94618 9.5822 5.88482C9.81959 5.82345 10.0676 5.81521 10.3085 5.86069C10.6377 5.9246 10.9404 6.08518 11.1779 6.32193C11.4154 6.55869 11.5769 6.86086 11.6418 7.18986C11.7074 7.5352 11.6621 7.89242 11.5125 8.21048C11.3628 8.52853 11.1164 8.79111 10.8085 8.96069C10.2987 9.25608 9.87734 9.68279 9.58845 10.1964C9.29957 10.7099 9.15369 11.2916 9.16602 11.8807V12.4999C9.16602 12.7209 9.25381 12.9328 9.41009 13.0891C9.56637 13.2454 9.77834 13.3332 9.99935 13.3332C10.2204 13.3332 10.4323 13.2454 10.5886 13.0891C10.7449 12.9328 10.8327 12.7209 10.8327 12.4999V11.8807C10.8222 11.5907 10.8884 11.3031 11.0244 11.0468C11.1605 10.7905 11.3616 10.5745 11.6077 10.4207C12.2114 10.0891 12.6976 9.57857 12.9994 8.95936C13.3012 8.34015 13.4037 7.64266 13.2929 6.9628C13.1821 6.28294 12.8634 5.6541 12.3806 5.16277C11.8978 4.67144 11.2747 4.34175 10.5968 4.21903Z" fill="#818181"/>
<path d="M10.8327 14.9998C10.8327 14.5396 10.4596 14.1665 9.99935 14.1665C9.53911 14.1665 9.16602 14.5396 9.16602 14.9998C9.16602 15.4601 9.53911 15.8332 9.99935 15.8332C10.4596 15.8332 10.8327 15.4601 10.8327 14.9998Z" fill="#818181"/>
</g>
<defs>
<clipPath id="clip0_1802_356">
<rect width="20" height="20" fill="white"/>
</clipPath>
</defs>
</svg>
