<svg width="16" height="16" viewBox="0 0 16 16" fill="currentColor" xmlns="http://www.w3.org/2000/svg">
<g clip-path="url(#clip0_1883_126)">
<path d="M12.6667 5.616V4.66667C12.6667 3.42899 12.175 2.242 11.2998 1.36684C10.4247 0.491665 9.23767 0 8 0C6.76232 0 5.57533 0.491665 4.70016 1.36684C3.82499 2.242 3.33333 3.42899 3.33333 4.66667V5.616C2.73957 5.87514 2.23419 6.30168 1.87899 6.84347C1.5238 7.38527 1.33418 8.01882 1.33333 8.66667V12.6667C1.33439 13.5504 1.68592 14.3976 2.31081 15.0225C2.9357 15.6474 3.78293 15.9989 4.66666 16H11.3333C12.2171 15.9989 13.0643 15.6474 13.6892 15.0225C14.3141 14.3976 14.6656 13.5504 14.6667 12.6667V8.66667C14.6658 8.01882 14.4762 7.38527 14.121 6.84347C13.7658 6.30168 13.2604 5.87514 12.6667 5.616ZM4.66666 4.66667C4.66666 3.78261 5.01785 2.93477 5.64297 2.30964C6.26809 1.68452 7.11594 1.33333 8 1.33333C8.88405 1.33333 9.7319 1.68452 10.357 2.30964C10.9821 2.93477 11.3333 3.78261 11.3333 4.66667V5.33333H4.66666V4.66667ZM13.3333 12.6667C13.3333 13.1971 13.1226 13.7058 12.7475 14.0809C12.3725 14.456 11.8638 14.6667 11.3333 14.6667H4.66666C4.13623 14.6667 3.62752 14.456 3.25245 14.0809C2.87738 13.7058 2.66666 13.1971 2.66666 12.6667V8.66667C2.66666 8.13623 2.87738 7.62753 3.25245 7.25245C3.62752 6.87738 4.13623 6.66667 4.66666 6.66667H11.3333C11.8638 6.66667 12.3725 6.87738 12.7475 7.25245C13.1226 7.62753 13.3333 8.13623 13.3333 8.66667V12.6667Z"/>
<path d="M7.99999 9.3335C7.82318 9.3335 7.65361 9.40373 7.52859 9.52876C7.40357 9.65378 7.33333 9.82335 7.33333 10.0002V11.3335C7.33333 11.5103 7.40357 11.6799 7.52859 11.8049C7.65361 11.9299 7.82318 12.0002 7.99999 12.0002C8.17681 12.0002 8.34638 11.9299 8.4714 11.8049C8.59642 11.6799 8.66666 11.5103 8.66666 11.3335V10.0002C8.66666 9.82335 8.59642 9.65378 8.4714 9.52876C8.34638 9.40373 8.17681 9.3335 7.99999 9.3335Z"/>
</g>
</svg>
