<svg width="20" height="20" viewBox="0 0 20 20" xmlns="http://www.w3.org/2000/svg">
<path d="M14.1667 7.5V10.8333C14.1667 11.2942 13.7933 11.6667 13.3333 11.6667C12.8733 11.6667 12.5 11.2942 12.5 10.8333V7.86667L8.08833 12.2575C7.92583 12.4192 7.7125 12.5 7.5 12.5C7.28583 12.5 7.0725 12.4175 6.90917 12.2542C6.58417 11.9275 6.58583 11.4008 6.91167 11.0758L11.3425 6.66667H8.33333C7.87333 6.66667 7.5 6.29417 7.5 5.83333C7.5 5.3725 7.87333 5 8.33333 5H11.6667C13.045 5 14.1667 6.12167 14.1667 7.5ZM20 3.33333V13.3333C20 15.1717 18.505 16.6667 16.6667 16.6667H14.29L11.0842 19.3167C10.7825 19.585 10.3967 19.7208 10.0075 19.7208C9.61083 19.7208 9.21083 19.58 8.8925 19.2967L5.76917 16.6667H3.33333C1.495 16.6667 0 15.1717 0 13.3333V3.33333C0 1.495 1.495 0 3.33333 0H16.6667C18.505 0 20 1.495 20 3.33333ZM18.3333 3.33333C18.3333 2.41417 17.5858 1.66667 16.6667 1.66667H3.33333C2.41417 1.66667 1.66667 2.41417 1.66667 3.33333V13.3333C1.66667 14.2525 2.41417 15 3.33333 15H6.07417C6.27083 15 6.46083 15.0692 6.61083 15.1958L9.98333 18.0367L13.46 15.1908C13.6092 15.0675 13.7975 15 13.9908 15H16.6667C17.5858 15 18.3333 14.2525 18.3333 13.3333V3.33333Z"/>
</svg>