<svg width="44" height="39" viewBox="0 0 44 39" fill="none" xmlns="http://www.w3.org/2000/svg">
<g clip-path="url(#clip0_1811_1041)">
<path d="M43.9297 33.3146C43.7597 33.6032 43.5055 33.7872 43.1949 33.9322C39.9315 35.4551 36.6697 36.9813 33.4164 38.5245C32.9577 38.7425 32.5747 38.7433 32.1151 38.5245C29.026 37.0559 25.9233 35.614 22.8325 34.1486C22.537 34.0084 22.3173 34.0206 22.0269 34.1575C18.9243 35.6294 15.8116 37.0826 12.7072 38.552C12.2956 38.7465 11.932 38.7522 11.5162 38.5553C8.21238 36.9902 4.90353 35.4349 1.58962 33.8885C1.13087 33.6737 0.928014 33.3738 0.929698 32.8786C0.941482 29.2265 0.94064 25.5745 0.93054 21.9224C0.928856 21.4434 1.12919 21.1468 1.57447 20.9442C4.77642 19.4853 7.97249 18.0126 11.1761 16.5562C11.4438 16.4346 11.5313 16.2928 11.5238 16.014C11.5027 15.2732 11.5137 14.5316 11.5179 13.7908C11.5212 13.2308 11.8428 12.8701 12.3377 12.8596C12.8478 12.8482 13.1929 13.2194 13.1955 13.7949C13.1997 14.5762 13.2022 15.3583 13.1921 16.1396C13.1896 16.322 13.2409 16.4241 13.4202 16.51C16.0935 17.7906 18.7618 19.0792 21.4327 20.3647C21.4663 20.3809 21.5084 20.3801 21.548 20.3882C21.6296 20.2844 21.5909 20.1742 21.5909 20.0737C21.5934 17.1357 21.5926 14.1977 21.5943 11.2596C21.5943 11.07 21.5976 10.9241 21.3611 10.8114C18.7113 9.55033 16.0708 8.27138 13.4278 6.99891C13.3672 6.96974 13.3007 6.95434 13.214 6.92435C13.2047 7.06456 13.2056 7.18289 13.1887 7.29879C13.1273 7.7089 12.7687 8.00797 12.3512 8.00473C11.9329 8.00149 11.5515 7.69755 11.5313 7.28583C11.5027 6.69417 11.5061 6.10008 11.528 5.50762C11.5423 5.12912 11.8243 4.93055 12.1568 4.77088C15.2888 3.26824 18.426 1.77532 21.5396 0.238634C22.181 -0.0774563 22.6936 -0.0774563 23.3333 0.237823C26.4132 1.75506 29.5125 3.23582 32.6143 4.71172C33.1454 4.96459 33.3634 5.30499 33.36 5.88206C33.3398 9.26423 33.3533 12.6472 33.3432 16.0302C33.3432 16.292 33.4122 16.4241 33.6698 16.5416C36.8229 17.9745 39.9677 19.4237 43.1183 20.8615C43.4524 21.0139 43.7479 21.1914 43.9297 21.5107V33.3163V33.3146ZM11.2645 36.6279C11.2645 33.4881 11.2603 30.4188 11.2729 27.3494C11.2738 27.0925 11.1206 27.0358 10.9497 26.9547C8.84453 25.9676 6.73935 24.9812 4.63501 23.994C3.97509 23.6844 3.31602 23.374 2.6401 23.0571C2.62832 23.1382 2.61738 23.1762 2.61738 23.2143C2.61653 26.2439 2.61906 29.2735 2.61148 32.3023C2.61148 32.5106 2.68724 32.6014 2.87579 32.6881C4.08284 33.2433 5.28315 33.8131 6.48515 34.378C8.06003 35.1188 9.63408 35.8596 11.2654 36.6271L11.2645 36.6279ZM23.298 23.0563C23.2853 23.1373 23.2744 23.1754 23.2744 23.2127C23.2735 26.2423 23.2794 29.2719 23.2634 32.3015C23.2618 32.5803 23.4251 32.6371 23.6069 32.723C26.2491 33.9655 28.8913 35.2079 31.536 36.4439C31.6505 36.4974 31.7557 36.6125 31.9215 36.5623C31.9215 33.4905 31.9207 30.4204 31.9249 27.3511C31.9249 27.1857 31.8895 27.0852 31.7212 27.0066C28.9266 25.7009 26.1346 24.3879 23.298 23.0555V23.0563ZM21.5926 23.0701C21.4579 23.1252 21.3712 23.1568 21.287 23.1965C18.5935 24.4609 15.9016 25.7309 13.2022 26.9839C12.9572 27.0974 12.9404 27.2417 12.9412 27.4532C12.9455 30.2818 12.9438 33.1104 12.9438 35.939C12.9438 36.1505 12.9438 36.3629 12.9438 36.6077C13.0296 36.5785 13.0818 36.5655 13.1281 36.5436C15.8722 35.2549 18.6145 33.9614 21.3645 32.6841C21.6052 32.5722 21.5926 32.4207 21.5926 32.2334C21.5926 29.2971 21.5926 26.3607 21.5926 23.4243C21.5926 23.3221 21.5926 23.22 21.5926 23.0701ZM33.6008 36.6068C33.6984 36.5736 33.7515 36.5615 33.7994 36.5388C36.5309 35.2549 39.2598 33.9663 41.9962 32.6938C42.2446 32.5787 42.2521 32.428 42.2521 32.2197C42.2488 29.2833 42.2496 26.3469 42.2496 23.4105C42.2496 23.3108 42.2496 23.2103 42.2496 23.1268C42.1848 23.1098 42.1688 23.1001 42.1595 23.1041C39.3633 24.4122 36.5687 25.722 33.7717 27.0261C33.6134 27.0998 33.5991 27.2036 33.5991 27.3462C33.6016 30.4171 33.6016 33.4881 33.6016 36.6068H33.6008ZM31.6698 6.94218C31.584 6.95109 31.5537 6.94704 31.5318 6.95839C28.85 8.24868 26.1708 9.54303 23.4848 10.8244C23.2693 10.9273 23.271 11.0651 23.271 11.2434C23.2735 14.2074 23.2719 17.1705 23.2752 20.1345C23.2752 20.2172 23.2239 20.3209 23.3485 20.3979C23.404 20.3744 23.4663 20.3501 23.5269 20.3209C26.1447 19.0622 28.7617 17.8003 31.3837 16.5481C31.6008 16.4443 31.6783 16.3268 31.6766 16.0918C31.664 14.731 31.6707 13.371 31.6707 12.0102V6.94299L31.6698 6.94218ZM24.4141 21.7028C24.436 21.8284 24.5336 21.8357 24.6043 21.8689C27.2465 23.1122 29.8913 24.3506 32.5293 25.6004C32.7405 25.7001 32.8878 25.6458 33.068 25.5615C35.1832 24.5646 37.301 23.5718 39.418 22.5773C39.9727 22.3171 40.5257 22.0553 41.1065 21.7822C41.0358 21.7263 41.008 21.6947 40.9735 21.6785C38.232 20.4182 35.4888 19.1611 32.7489 17.8967C32.5604 17.81 32.4207 17.8473 32.249 17.9308C30.8433 18.614 29.4325 19.2892 28.0243 19.9667C26.8189 20.5462 25.6136 21.1265 24.4149 21.7028H24.4141ZM20.5345 21.7433C17.8174 20.4327 15.1777 19.1627 12.5423 17.883C12.3394 17.7841 12.2022 17.87 12.0414 17.9437C9.3866 19.1611 6.73009 20.376 4.07694 21.5958C3.97593 21.642 3.82526 21.6436 3.79833 21.8008C6.48178 23.0603 9.16523 24.315 11.8411 25.5834C12.0625 25.6888 12.2199 25.6539 12.4168 25.5607C14.2813 24.6797 16.1491 23.806 18.0161 22.929C18.8275 22.5481 19.6389 22.1656 20.5354 21.7433H20.5345ZM14.2813 5.55868C14.3495 5.61784 14.3671 5.64054 14.3899 5.65188C16.9959 6.90733 19.6053 8.15872 22.2062 9.42308C22.4225 9.52845 22.5682 9.46523 22.7449 9.38013C25.2626 8.16602 27.781 6.95434 30.2978 5.7386C30.3879 5.69565 30.5184 5.69079 30.5503 5.54166C27.9098 4.26757 25.2685 2.9951 22.6313 1.71696C22.4529 1.63024 22.3232 1.68454 22.1675 1.76073C21.4217 2.12626 20.6701 2.48044 19.9218 2.84111C18.0539 3.74075 16.1861 4.6412 14.2813 5.55868Z" fill="#4A4A4A"/>
<path d="M13.1943 10.4274C13.196 10.8762 12.8029 11.2473 12.3374 11.2375C11.8871 11.2278 11.5193 10.8665 11.5176 10.4331C11.5159 9.98343 11.9065 9.614 12.3736 9.62372C12.8231 9.63344 13.1926 9.99558 13.1943 10.4282V10.4274Z" fill="#0027F3"/>
</g>
<defs>
<clipPath id="clip0_1811_1041">
<rect width="43" height="38.7" fill="white" transform="translate(0.929688)"/>
</clipPath>
</defs>
</svg>
