<svg width="13" height="13" viewBox="0 0 13 13" xmlns="http://www.w3.org/2000/svg">
<path d="M11.4583 5.20833H7.29167V1.04167C7.29167 0.765399 7.18192 0.500448 6.98657 0.305097C6.79122 0.109747 6.52627 0 6.25 0C5.97373 0 5.70878 0.109747 5.51343 0.305097C5.31808 0.500448 5.20833 0.765399 5.20833 1.04167V5.20833H1.04167C0.765399 5.20833 0.500448 5.31808 0.305097 5.51343C0.109747 5.70878 0 5.97373 0 6.25C0 6.52627 0.109747 6.79122 0.305097 6.98657C0.500448 7.18192 0.765399 7.29167 1.04167 7.29167H5.20833V11.4583C5.20833 11.7346 5.31808 11.9996 5.51343 12.1949C5.70878 12.3903 5.97373 12.5 6.25 12.5C6.52627 12.5 6.79122 12.3903 6.98657 12.1949C7.18192 11.9996 7.29167 11.7346 7.29167 11.4583V7.29167H11.4583C11.7346 7.29167 11.9996 7.18192 12.1949 6.98657C12.3903 6.79122 12.5 6.52627 12.5 6.25C12.5 5.97373 12.3903 5.70878 12.1949 5.51343C11.9996 5.31808 11.7346 5.20833 11.4583 5.20833Z"/>
</svg>
