<svg width="22" height="21" viewBox="0 0 22 21" fill="none" xmlns="http://www.w3.org/2000/svg">
<path d="M19.3325 0.50001H17.5225C17.1941 0.499075 16.8687 0.563339 16.5653 0.689079C16.2619 0.814818 15.9865 0.999531 15.755 1.23251L8.7875 8.19918C7.45356 7.855 6.04345 7.95894 4.77439 8.495C3.50533 9.03105 2.44772 9.96947 1.76445 11.1657C1.08118 12.362 0.810174 13.7497 0.993163 15.1151C1.17615 16.4805 1.80299 17.7479 2.77712 18.7221C3.75126 19.6962 5.01864 20.323 6.38407 20.506C7.74949 20.689 9.13721 20.418 10.3335 19.7347C11.5297 19.0515 12.4681 17.9938 13.0042 16.7248C13.5402 15.4557 13.6442 14.0456 13.3 12.7117L14.3325 11.6792V9.66668H16.8325V7.16668H18.8442L20.2667 5.74418C20.4996 5.51245 20.6842 5.23686 20.8099 4.93334C20.9357 4.62981 21 4.30438 20.9992 3.97584V2.16668C20.9992 1.72465 20.8236 1.30073 20.511 0.988166C20.1985 0.675605 19.7745 0.50001 19.3325 0.50001ZM19.3325 3.97584C19.3326 4.08541 19.3111 4.19392 19.2692 4.29516C19.2273 4.3964 19.1658 4.48838 19.0883 4.56584L18.1542 5.50001H15.1658V8.00001H12.6658V10.9875L11.3783 12.275C11.6715 12.8925 11.8265 13.5665 11.8325 14.25C11.8325 15.1565 11.5637 16.0427 11.0601 16.7964C10.5565 17.5501 9.84063 18.1376 9.00314 18.4845C8.16564 18.8314 7.24409 18.9221 6.35501 18.7453C5.46593 18.5684 4.64925 18.1319 4.00826 17.4909C3.36727 16.8499 2.93075 16.0333 2.7539 15.1442C2.57706 14.2551 2.66782 13.3335 3.01472 12.496C3.36162 11.6586 3.94908 10.9427 4.70281 10.4391C5.45653 9.93549 6.34267 9.66668 7.24917 9.66668C7.93738 9.62169 8.6237 9.77929 9.22334 10.12L16.9333 2.41084C17.09 2.25524 17.3017 2.16754 17.5225 2.16668H19.3325V3.97584ZM5.16584 15.5C5.16584 15.6648 5.21471 15.8259 5.30628 15.963C5.39785 16.1 5.528 16.2068 5.68027 16.2699C5.83254 16.333 6.00009 16.3495 6.16175 16.3173C6.3234 16.2852 6.47188 16.2058 6.58843 16.0893C6.70497 15.9727 6.78434 15.8242 6.81649 15.6626C6.84865 15.5009 6.83214 15.3334 6.76907 15.1811C6.706 15.0288 6.59919 14.8987 6.46215 14.8071C6.3251 14.7156 6.16399 14.6667 5.99917 14.6667C5.77816 14.6667 5.5662 14.7545 5.40991 14.9108C5.25363 15.067 5.16584 15.279 5.16584 15.5Z" fill="#FF3B30"/>
<path d="M21.7436 19.7436C22.0858 19.4015 22.0858 18.8485 21.7436 18.5064L19.7373 16.5001L21.7436 14.4938C22.0858 14.1517 22.0858 13.5987 21.7436 13.2566C21.4015 12.9145 20.8485 12.9145 20.5064 13.2566L18.5001 15.2629L16.4938 13.2566C16.1517 12.9145 15.5987 12.9145 15.2566 13.2566C14.9145 13.5987 14.9145 14.1517 15.2566 14.4938L17.2629 16.5001L15.2566 18.5064C14.9145 18.8485 14.9145 19.4015 15.2566 19.7436C15.4272 19.9143 15.6512 20 15.8752 20C16.0992 20 16.3232 19.9143 16.4938 19.7436L18.5001 17.7373L20.5064 19.7436C20.677 19.9143 20.901 20 21.125 20C21.349 20 21.573 19.9143 21.7436 19.7436Z" fill="#FF3B30"/>
</svg>
