<svg width="20" height="20" viewBox="0 0 20 20" xmlns="http://www.w3.org/2000/svg">
<g clip-path="url(#clip0_2710_1271)">
<path d="M5.83333 2.38023e-06H3.33333C1.49167 2.38023e-06 0 1.49167 0 3.33334V5.83334C0 7.675 1.49167 9.16667 3.33333 9.16667H5.83333C7.675 9.16667 9.16667 7.675 9.16667 5.83334V3.33334C9.16667 1.49167 7.675 2.38023e-06 5.83333 2.38023e-06ZM7.5 5.83334C7.5 6.75 6.75 7.5 5.83333 7.5H3.33333C2.41667 7.5 1.66667 6.75 1.66667 5.83334V3.33334C1.66667 2.41667 2.41667 1.66667 3.33333 1.66667H5.83333C6.75 1.66667 7.5 2.41667 7.5 3.33334V5.83334ZM16.6667 10.8333H14.1667C12.325 10.8333 10.8333 12.325 10.8333 14.1667V16.6667C10.8333 18.5083 12.325 20 14.1667 20H16.6667C18.5083 20 20 18.5083 20 16.6667V14.1667C20 12.325 18.5083 10.8333 16.6667 10.8333ZM18.3333 16.6667C18.3333 17.5833 17.5833 18.3333 16.6667 18.3333H14.1667C13.25 18.3333 12.5 17.5833 12.5 16.6667V14.1667C12.5 13.25 13.25 12.5 14.1667 12.5H16.6667C17.5833 12.5 18.3333 13.25 18.3333 14.1667V16.6667ZM10.8333 4.16667C10.8333 3.28334 11.2 2.45834 11.875 1.85L13.6 0.225002C13.9333 -0.0916643 14.4583 -0.0749976 14.775 0.258336C15.0917 0.591669 15.075 1.125 14.7417 1.43334L13.0083 3.05834C12.9167 3.14167 12.8417 3.23334 12.775 3.325H15.8333C17.675 3.325 19.1667 4.81667 19.1667 6.65834V8.325C19.1667 8.78334 18.7917 9.15834 18.3333 9.15834C17.875 9.15834 17.5 8.78334 17.5 8.325V6.65834C17.5 5.74167 16.75 4.99167 15.8333 4.99167H12.775C12.8417 5.08334 12.9167 5.16667 13 5.25L14.7417 6.88334C15.075 7.2 15.0917 7.725 14.775 8.05834C14.6083 8.23334 14.3917 8.31667 14.1667 8.31667C13.9583 8.31667 13.7583 8.24167 13.5917 8.09167L11.8583 6.46667C11.2 5.85834 10.825 5.03334 10.825 4.15834L10.8333 4.16667ZM9.16667 15.8333C9.16667 16.7167 8.8 17.5333 8.125 18.15L6.4 19.775C6.24167 19.925 6.03333 20 5.825 20C5.6 20 5.38333 19.9083 5.21667 19.7417C4.9 19.4083 4.91667 18.875 5.25 18.5667L6.98333 16.9417C7.075 16.8583 7.15 16.7667 7.21667 16.675H4.15833C2.31667 16.675 0.825 15.1833 0.825 13.3417V11.675C0.825 11.2167 1.2 10.8417 1.65833 10.8417C2.11667 10.8417 2.49167 11.2167 2.49167 11.675V13.3417C2.49167 14.2583 3.24167 15.0083 4.15833 15.0083H7.21667C7.15 14.9167 7.075 14.8333 6.99167 14.75L5.25 13.1167C4.91667 12.8 4.9 12.275 5.21667 11.9417C5.53333 11.6083 6.05833 11.5917 6.39167 11.9083L8.125 13.5333C8.78333 14.1417 9.15833 14.9667 9.15833 15.8417L9.16667 15.8333Z"/>
</g>
<defs>
<clipPath id="clip0_2710_1271">
<rect width="20" height="20"/>
</clipPath>
</defs>
</svg>
