<svg width="30" height="30" viewBox="0 0 30 30" fill="none" xmlns="http://www.w3.org/2000/svg">
<g clip-path="url(#clip0_2012_124)">
<path d="M13.0314 0.815625C14.1189 -0.271875 15.8814 -0.271875 16.9689 0.815625L29.1845 13.0331C30.272 14.1206 30.272 15.8812 29.1845 16.9669L16.9689 29.1844C15.8814 30.2719 14.1207 30.2719 13.0351 29.1844L0.815734 16.9688C0.556655 16.7109 0.35107 16.4044 0.210788 16.0669C0.0705059 15.7293 -0.00170898 15.3674 -0.00170898 15.0019C-0.00170898 14.6363 0.0705059 14.2744 0.210788 13.9369C0.35107 13.5993 0.556655 13.2929 0.815734 13.035L13.0314 0.815625ZM15.6564 2.12812C15.4823 1.95409 15.2462 1.85632 15.0001 1.85632C14.754 1.85632 14.5179 1.95409 14.3439 2.12812L2.12636 14.3438C1.95232 14.5178 1.85455 14.7539 1.85455 15C1.85455 15.2461 1.95232 15.4822 2.12636 15.6563L14.3439 27.8738C14.5179 28.0478 14.754 28.1456 15.0001 28.1456C15.2462 28.1456 15.4823 28.0478 15.6564 27.8738L27.8739 15.6563C28.0479 15.4822 28.1457 15.2461 28.1457 15C28.1457 14.7539 28.0479 14.5178 27.8739 14.3438L15.6564 2.12625V2.12812Z" fill="url(#paint0_linear_2012_124)"/>
<path d="M13.1288 20.6251C13.1288 20.3789 13.1773 20.1351 13.2715 19.9076C13.3657 19.6801 13.5038 19.4734 13.6779 19.2993C13.852 19.1252 14.0587 18.9871 14.2862 18.8928C14.5137 18.7986 14.7575 18.7501 15.0038 18.7501C15.25 18.7501 15.4938 18.7986 15.7213 18.8928C15.9488 18.9871 16.1555 19.1252 16.3296 19.2993C16.5037 19.4734 16.6418 19.6801 16.736 19.9076C16.8303 20.1351 16.8788 20.3789 16.8788 20.6251C16.8788 21.1224 16.6812 21.5993 16.3296 21.9509C15.9779 22.3026 15.501 22.5001 15.0038 22.5001C14.5065 22.5001 14.0296 22.3026 13.6779 21.9509C13.3263 21.5993 13.1288 21.1224 13.1288 20.6251ZM13.3125 9.36572C13.2875 9.12917 13.3126 8.89002 13.386 8.66378C13.4594 8.43753 13.5796 8.22925 13.7387 8.05245C13.8978 7.87565 14.0924 7.73427 14.3096 7.6375C14.5269 7.54073 14.7621 7.49072 15 7.49072C15.2379 7.49072 15.4731 7.54073 15.6904 7.6375C15.9076 7.73427 16.1022 7.87565 16.2613 8.05245C16.4204 8.22925 16.5406 8.43753 16.614 8.66378C16.6874 8.89002 16.7125 9.12917 16.6875 9.36572L16.0313 15.9413C16.0092 16.1997 15.891 16.4403 15.7 16.6157C15.5091 16.791 15.2593 16.8883 15 16.8883C14.7407 16.8883 14.4909 16.791 14.3 16.6157C14.109 16.4403 13.9908 16.1997 13.9688 15.9413L13.3125 9.36572Z" fill="url(#paint1_linear_2012_124)"/>
</g>
<defs>
<linearGradient id="paint0_linear_2012_124" x1="29.5358" y1="3" x2="-3.55744" y2="10.6905" gradientUnits="userSpaceOnUse">
<stop stop-color="#006FFF"/>
<stop offset="1" stop-color="#001FC0"/>
</linearGradient>
<linearGradient id="paint1_linear_2012_124" x1="16.8207" y1="8.99166" x2="12.4756" y2="9.24393" gradientUnits="userSpaceOnUse">
<stop stop-color="#006FFF"/>
<stop offset="1" stop-color="#001FC0"/>
</linearGradient>
<clipPath id="clip0_2012_124">
<rect width="30" height="30" fill="white"/>
</clipPath>
</defs>
</svg>
