<svg width="20" height="21" viewBox="0 0 20 21" xmlns="http://www.w3.org/2000/svg">
<path d="M9.16675 11.3335V6.3335C9.16675 5.87516 9.54175 5.50016 10.0001 5.50016C10.4584 5.50016 10.8334 5.87516 10.8334 6.3335V11.3335C10.8334 11.7918 10.4584 12.1668 10.0001 12.1668C9.54175 12.1668 9.16675 11.7918 9.16675 11.3335ZM10.0001 13.0002C9.30842 13.0002 8.75008 13.5585 8.75008 14.2502C8.75008 14.9418 9.30842 15.5002 10.0001 15.5002C10.6917 15.5002 11.2501 14.9418 11.2501 14.2502C11.2501 13.5585 10.6917 13.0002 10.0001 13.0002ZM19.6501 17.0668C19.0667 18.1918 17.8417 18.8335 16.3084 18.8335H3.70008C2.15842 18.8335 0.94175 18.1918 0.358416 17.0668C-0.23325 15.9335 -0.0665837 14.4835 0.775083 13.2668L7.47508 2.66683C8.06675 1.81683 9.00008 1.3335 10.0001 1.3335C11.0001 1.3335 11.9334 1.81683 12.5001 2.64183L19.2334 13.2835C20.0751 14.5002 20.2334 15.9418 19.6417 17.0668H19.6501ZM17.8584 14.2168C17.8584 14.2168 17.8417 14.2002 17.8417 14.1835L11.1167 3.5585C10.8751 3.21683 10.4584 3.00016 10.0001 3.00016C9.54175 3.00016 9.12508 3.21683 8.86675 3.59183L2.15842 14.1835C1.64175 14.9168 1.52508 15.7168 1.82508 16.2918C2.11675 16.8585 2.78342 17.1668 3.69175 17.1668H16.2917C17.2001 17.1668 17.8668 16.8585 18.1584 16.2918C18.4584 15.7168 18.3417 14.9168 17.8501 14.2168H17.8584Z"/>
</svg>
