<svg width="35" height="40" viewBox="0 0 35 40" fill="none" xmlns="http://www.w3.org/2000/svg">
<g clip-path="url(#clip0_1811_1025)">
<path d="M16.2734 34.2917H2.43064C2.39062 34.2917 2.35537 34.2841 2.32202 34.2698C2.27152 34.2488 2.22483 34.2097 2.19338 34.163C2.16194 34.1154 2.14479 34.0649 2.14479 34.0058V18.1621C2.14479 18.1221 2.15241 18.0868 2.1667 18.0535C2.18767 18.003 2.22673 17.9563 2.27342 17.9248C2.32106 17.8934 2.37156 17.8762 2.43064 17.8762H24.4173C24.4573 17.8762 24.4926 17.8839 24.5259 17.8982C24.5764 17.9191 24.6231 17.9582 24.6546 18.0049C24.686 18.0525 24.7031 18.103 24.7031 18.1621V23.76C24.7031 24.2336 25.0871 24.6175 25.5607 24.6175C26.0343 24.6175 26.4182 24.2336 26.4182 23.76V18.1621C26.4182 17.8877 26.362 17.6228 26.2601 17.3827C26.1067 17.0225 25.8551 16.7205 25.5369 16.5042C25.2196 16.2888 24.8299 16.1602 24.4182 16.1611H2.43064C2.15622 16.1611 1.89134 16.2174 1.65122 16.3193C1.29105 16.4727 0.989001 16.7243 0.772708 17.0425C0.557367 17.3598 0.429688 17.7495 0.429688 18.1611V34.0049C0.429688 34.2793 0.485905 34.5442 0.587858 34.7843C0.741264 35.1445 0.992813 35.4465 1.31106 35.6628C1.62835 35.8782 2.01806 36.0068 2.42969 36.0058H16.2725C16.746 36.0058 17.13 35.6218 17.13 35.1483C17.13 34.6747 16.746 34.2907 16.2725 34.2907L16.2734 34.2917Z" fill="#4A4A4A"/>
<path d="M31.7413 30.3327C31.2124 29.0825 30.3311 28.022 29.221 27.2721C28.1119 26.5223 26.7684 26.083 25.3296 26.083C24.3711 26.083 23.4535 26.2774 22.6207 26.6299C21.3706 27.1588 20.3101 28.0401 19.5602 29.1502C18.8104 30.2593 18.3711 31.6028 18.3711 33.0416C18.3711 34.0001 18.5655 34.9177 18.918 35.7505C19.4468 37.0006 20.3282 38.0611 21.4383 38.811C22.5474 39.5609 23.8909 40.0001 25.3296 40.0001C26.2882 40.0001 27.2058 39.8057 28.0386 39.4532C29.2887 38.9244 30.3492 38.043 31.0991 36.9329C31.8489 35.8238 32.2882 34.4803 32.2882 33.0416C32.2882 32.083 32.0938 31.1654 31.7413 30.3327ZM30.1615 35.0825C29.7641 36.022 29.0981 36.8243 28.2606 37.3903C27.423 37.9553 26.4187 38.285 25.3296 38.285C24.6036 38.285 23.9156 38.1383 23.2887 37.8734C22.3492 37.4761 21.5469 36.81 20.9809 35.9725C20.4159 35.1349 20.0862 34.1306 20.0862 33.0416C20.0862 32.3155 20.2329 31.6276 20.4978 31.0006C20.8952 30.0611 21.5612 29.2588 22.3987 28.6928C23.2363 28.1278 24.2406 27.7981 25.3296 27.7981C26.0557 27.7981 26.7436 27.9448 27.3706 28.2097C28.3101 28.6071 29.1124 29.2731 29.6784 30.1106C30.2434 30.9482 30.5731 31.9525 30.5731 33.0416C30.5731 33.7676 30.4264 34.4556 30.1615 35.0825Z" fill="#4A4A4A"/>
<path d="M28.6217 30.9568C28.3149 30.7167 27.8708 30.7653 27.5945 31.0406L25.0514 33.5838L23.2791 31.8115C23.0038 31.5361 22.5588 31.4875 22.252 31.7276C21.8842 32.0154 21.8604 32.549 22.1805 32.8691L24.1758 34.8644C24.2949 34.9835 24.4359 35.0759 24.5855 35.1369C24.7351 35.1979 24.8932 35.2274 25.0514 35.2274C25.2096 35.2274 25.3677 35.1969 25.5173 35.1369C25.6669 35.0759 25.808 34.9844 25.928 34.8644L28.6941 32.0983C29.0142 31.7781 28.9904 31.2446 28.6226 30.9568H28.6217Z" fill="#4A4A4A"/>
<path d="M15.2184 26.3003C15.5529 25.9096 15.7539 25.4037 15.7539 24.851C15.7539 23.5676 14.6668 22.5337 13.3642 22.6214C12.2675 22.6957 11.3738 23.58 11.2899 24.6767C11.2375 25.3618 11.4957 25.9868 11.9378 26.4299L11.3661 28.549L11.3299 28.6833V28.8215C11.3299 29.5685 11.9359 30.1745 12.683 30.1745H14.3552C15.1022 30.1745 15.7082 29.5685 15.7082 28.8215V28.7167L15.6872 28.6138L15.2184 26.3003ZM14.3552 29.1264H12.683C12.5153 29.1264 12.378 28.9892 12.378 28.8215L12.8726 26.9901L13.1403 25.9992C13.1403 25.9992 13.1403 25.9992 13.1403 25.9982C13.1403 25.9287 13.106 25.8649 13.0441 25.8353C12.7458 25.6914 12.5229 25.4151 12.4514 25.0826C12.4352 25.0083 12.4266 24.9301 12.4266 24.851C12.4266 24.2488 12.9154 23.76 13.5186 23.76C14.1217 23.76 14.6105 24.2488 14.6105 24.851C14.6105 24.8768 14.6096 24.9025 14.6077 24.9273C14.5867 25.2312 14.4419 25.5009 14.2227 25.6857C14.1332 25.761 14.0846 25.8706 14.0884 25.9878C14.0884 25.9916 14.0884 25.9954 14.0884 25.9992L14.2818 26.952L14.6601 28.8215C14.6601 28.9892 14.5229 29.1264 14.3552 29.1264Z" fill="#4A4A4A"/>
<path d="M30.3553 17.716L33.8531 18.7575C34.2267 18.8689 34.6411 18.6993 34.7964 18.342C34.9823 17.9132 34.7498 17.433 34.3162 17.3044L30.8184 16.2629C30.4449 16.1515 30.0304 16.3211 29.8751 16.6784C29.6893 17.1071 29.9217 17.5874 30.3553 17.716Z" fill="#316BFF"/>
<path d="M30.73 14.3785L34.2784 13.5048C34.649 13.4133 34.9158 13.0684 34.8787 12.6882C34.832 12.2147 34.3822 11.9088 33.9373 12.0184L30.3889 12.8921C30.0182 12.9836 29.7515 13.3285 29.7886 13.7087C29.8353 14.1823 30.285 14.4881 30.73 14.3785Z" fill="#316BFF"/>
<path d="M29.3587 11.6123L31.8618 8.95677C32.1286 8.67283 32.1648 8.22785 31.9152 7.92771C31.616 7.56849 31.0824 7.56087 30.7718 7.8896L28.2687 10.5451C28.0019 10.8291 27.9657 11.2741 28.2153 11.5742C28.5145 11.9334 29.0481 11.9411 29.3587 11.6123Z" fill="#316BFF"/>
<path d="M23.9738 6.43735C23.1753 4.55741 21.8556 2.95664 20.1586 1.80753C18.414 0.625059 16.3787 0 14.2739 0H14.1234C12.7046 0 11.3259 0.280133 10.0252 0.83373C8.1453 1.63221 6.54454 2.95188 5.39542 4.64888C4.21295 6.39447 3.58789 8.43068 3.58789 10.5364V16.3535H5.30299V10.5355C5.30299 8.71653 5.86231 7.01667 6.81514 5.61029C7.76798 4.2039 9.11338 3.08432 10.696 2.41162C11.7508 1.96379 12.9114 1.7151 14.1224 1.7151H14.2739C16.0919 1.7151 17.7918 2.27537 19.1972 3.22725C20.6036 4.18008 21.7232 5.52549 22.3959 7.10814C22.8437 8.16293 23.0924 9.32348 23.0924 10.5355V11.1948H21.0915V10.5355C21.0915 9.12815 20.6617 7.82277 19.9233 6.73177C19.1858 5.64173 18.1386 4.77179 16.9171 4.25345C16.1024 3.90757 15.2106 3.71605 14.272 3.71605H14.1234C12.716 3.71605 11.4107 4.14578 10.3197 4.88423C9.22962 5.62172 8.35969 6.66889 7.84134 7.89042C7.49547 8.70509 7.30395 9.59695 7.30395 10.5355V16.3535H9.01905V10.5355C9.01905 9.85135 9.15435 9.18723 9.42019 8.56122C9.80895 7.64649 10.4521 6.86612 11.2811 6.3049C12.1253 5.73416 13.1086 5.43211 14.1234 5.43116H14.272C14.9562 5.43116 15.6203 5.56646 16.2463 5.8323C17.161 6.22106 17.9414 6.86422 18.5026 7.69318C19.0734 8.53739 19.3754 9.52072 19.3764 10.5355V11.475C19.3764 12.0009 19.8032 12.4278 20.3292 12.4278H23.8547C24.3806 12.4278 24.8075 12.0009 24.8075 11.475V10.5345C24.8075 9.11672 24.5274 7.73797 23.9738 6.4364V6.43735Z" fill="#4A4A4A"/>
</g>
<defs>
<clipPath id="clip0_1811_1025">
<rect width="34.4526" height="40" fill="white" transform="translate(0.429688)"/>
</clipPath>
</defs>
</svg>
