<svg width="20" height="20" viewBox="0 0 20 20" fill="none" xmlns="http://www.w3.org/2000/svg">
<g clip-path="url(#clip0_1802_371)">
<path d="M18.3325 1.00662e-05H16.5225C16.1941 -0.000925334 15.8687 0.0633394 15.5653 0.189079C15.2619 0.314818 14.9865 0.499531 14.755 0.73251L7.7875 7.69918C6.45356 7.355 5.04345 7.45894 3.77439 7.995C2.50533 8.53105 1.44772 9.46947 0.76445 10.6657C0.0811847 11.862 -0.189826 13.2497 -0.00683678 14.6151C0.176152 15.9805 0.80299 17.2479 1.77712 18.2221C2.75125 19.1962 4.01864 19.823 5.38407 20.006C6.74949 20.189 8.13721 19.918 9.33346 19.2347C10.5297 18.5515 11.4681 17.4938 12.0042 16.2248C12.5402 14.9557 12.6442 13.5456 12.3 12.2117L13.3325 11.1792V9.16668H15.8325V6.66668H17.8442L19.2667 5.24418C19.4996 5.01245 19.6842 4.73686 19.8099 4.43334C19.9357 4.12981 20 3.80438 19.9992 3.47584V1.66668C19.9992 1.22465 19.8236 0.800726 19.511 0.488165C19.1985 0.175605 18.7745 1.00662e-05 18.3325 1.00662e-05ZM18.3325 3.47584C18.3326 3.58541 18.3111 3.69392 18.2692 3.79516C18.2273 3.8964 18.1658 3.98838 18.0883 4.06584L17.1542 5.00001H14.1658V7.50001H11.6658V10.4875L10.3783 11.775C10.6715 12.3925 10.8265 13.0665 10.8325 13.75C10.8325 14.6565 10.5637 15.5426 10.0601 16.2964C9.55645 17.0501 8.84063 17.6376 8.00314 17.9845C7.16564 18.3314 6.24409 18.4221 5.35501 18.2453C4.46593 18.0684 3.64925 17.6319 3.00826 16.9909C2.36727 16.3499 1.93075 15.5333 1.7539 14.6442C1.57706 13.7551 1.66782 12.8335 2.01472 11.996C2.36162 11.1586 2.94908 10.4427 3.70281 9.93911C4.45653 9.43548 5.34267 9.16668 6.24917 9.16668C6.93738 9.12169 7.6237 9.27929 8.22334 9.62001L15.9333 1.91084C16.09 1.75524 16.3017 1.66754 16.5225 1.66668H18.3325V3.47584ZM4.16584 15C4.16584 15.1648 4.21471 15.3259 4.30628 15.463C4.39785 15.6 4.528 15.7068 4.68027 15.7699C4.83254 15.833 5.00009 15.8495 5.16175 15.8173C5.3234 15.7852 5.47188 15.7058 5.58843 15.5893C5.70497 15.4727 5.78434 15.3242 5.81649 15.1626C5.84865 15.0009 5.83214 14.8334 5.76907 14.6811C5.706 14.5288 5.59919 14.3987 5.46215 14.3071C5.3251 14.2156 5.16399 14.1667 4.99917 14.1667C4.77816 14.1667 4.5662 14.2545 4.40991 14.4108C4.25363 14.567 4.16584 14.779 4.16584 15Z" fill="white"/>
</g>
<defs>
<clipPath id="clip0_1802_371">
<rect width="20" height="20" fill="white"/>
</clipPath>
</defs>
</svg>
