<svg width="20" height="20" viewBox="0 0 20 20" fill="none" xmlns="http://www.w3.org/2000/svg">
<g clip-path="url(#clip0_1802_570)">
<path d="M19.6933 11.8799C19.4642 11.4807 18.9533 11.3432 18.555 11.574L17.7408 12.0432C17.2367 11.4999 16.58 11.1049 15.8333 10.934V9.99986C15.8333 9.53902 15.46 9.16652 15 9.16652C14.54 9.16652 14.1667 9.53902 14.1667 9.99986V10.934C13.42 11.1049 12.7625 11.499 12.2592 12.0432L11.445 11.574C11.0475 11.3449 10.5367 11.4815 10.3067 11.8799C10.0775 12.279 10.2142 12.7882 10.6133 13.0174L11.4325 13.489C11.325 13.8374 11.2508 14.1999 11.2508 14.5832C11.2508 14.9665 11.325 15.329 11.4325 15.6774L10.6133 16.149C10.2142 16.3782 10.0775 16.8882 10.3067 17.2865C10.4608 17.554 10.7408 17.704 11.03 17.704C11.1708 17.704 11.3142 17.6682 11.445 17.5924L12.2592 17.1232C12.7633 17.6665 13.42 18.0615 14.1667 18.2324V19.1665C14.1667 19.6274 14.54 19.9999 15 19.9999C15.46 19.9999 15.8333 19.6274 15.8333 19.1665V18.2324C16.58 18.0615 17.2375 17.6674 17.7408 17.1232L18.555 17.5924C18.6858 17.6682 18.8292 17.704 18.97 17.704C19.2583 17.704 19.5392 17.554 19.6933 17.2865C19.9225 16.8874 19.7858 16.3782 19.3867 16.149L18.5675 15.6774C18.675 15.329 18.7492 14.9665 18.7492 14.5832C18.7492 14.1999 18.675 13.8374 18.5675 13.489L19.3867 13.0174C19.7858 12.7882 19.9225 12.2782 19.6933 11.8799ZM15 16.6665C13.8517 16.6665 12.9167 15.7324 12.9167 14.5832C12.9167 13.434 13.8517 12.4999 15 12.4999C16.1483 12.4999 17.0833 13.434 17.0833 14.5832C17.0833 15.7324 16.1483 16.6665 15 16.6665ZM4.16667 5.83319H6.27333C6.40167 5.83319 6.53167 5.86319 6.64583 5.92069L9.27583 7.23569C9.62167 7.40819 10.0075 7.49902 10.3933 7.49902H15.8333C16.975 7.49902 17.9708 8.26986 18.255 9.37319C18.3692 9.81819 18.8208 10.0865 19.2692 9.97319C19.715 9.85819 19.9833 9.40402 19.8683 8.95819C19.395 7.11736 17.7358 5.83236 15.8333 5.83236V4.02236C15.8333 3.35486 15.5733 2.72652 15.1008 2.25486L13.5775 0.731523C13.1058 0.259857 12.4775 -0.000976562 11.8092 -0.000976562H7.5C5.66167 -0.000976562 4.16667 1.49402 4.16667 3.33236V4.16569C1.86917 4.16652 0 6.03569 0 8.33319V15.8332C0 18.1307 1.86917 19.9999 4.16667 19.9999H8.33333C8.79333 19.9999 9.16667 19.6274 9.16667 19.1665C9.16667 18.7057 8.79333 18.3332 8.33333 18.3332H4.16667C2.78833 18.3332 1.66667 17.2115 1.66667 15.8332V10.8332H8.33333C8.79333 10.8332 9.16667 10.4607 9.16667 9.99986C9.16667 9.53902 8.79333 9.16652 8.33333 9.16652H1.66667V8.33319C1.66667 6.95486 2.78833 5.83319 4.16667 5.83319ZM5.83333 3.33319C5.83333 2.41402 6.58083 1.66652 7.5 1.66652H11.6667V3.33319C11.6667 3.79319 12.04 4.16652 12.5 4.16652H14.1667V5.83319H10.3933C10.265 5.83319 10.135 5.80319 10.0208 5.74569L7.39083 4.43069C7.045 4.25819 6.65917 4.16736 6.27333 4.16736H5.83333V3.33319Z" fill="white"/>
</g>
<defs>
<clipPath id="clip0_1802_570">
<rect width="20" height="20" fill="white"/>
</clipPath>
</defs>
</svg>
