<svg width="20" height="20" viewBox="0 0 20 20" fill="none" xmlns="http://www.w3.org/2000/svg">
<g clip-path="url(#clip0_1802_596)">
<path d="M13.3333 9.58333C13.3333 10.2733 12.7733 10.8333 12.0833 10.8333C11.3933 10.8333 10.8333 10.2733 10.8333 9.58333C10.8333 8.89333 11.3933 8.33333 12.0833 8.33333C12.7733 8.33333 13.3333 8.89333 13.3333 9.58333ZM15.8333 9.58333C15.8333 10.2733 16.3933 10.8333 17.0833 10.8333C17.7733 10.8333 18.3333 10.2733 18.3333 9.58333C18.3333 8.89333 17.7733 8.33333 17.0833 8.33333C16.3933 8.33333 15.8333 8.89333 15.8333 9.58333ZM8.33333 0.833333C8.33333 0.373333 8.70667 0 9.16667 0H9.43C10.5067 0 11.4417 0.68 11.7883 1.66667H18.3333C18.87 1.66667 19.3592 1.91417 19.6767 2.34667C19.9942 2.77917 20.0833 3.32083 19.9233 3.8325L19.3217 5.74833C18.9942 6.79583 18.0358 7.5 16.9367 7.5H13.2458C12.025 7.5 10.9892 6.6275 10.7825 5.425L10.2517 2.3575C10.1825 1.9575 9.83667 1.66583 9.43 1.66583H9.16667C8.70667 1.66583 8.33333 1.29333 8.33333 0.833333ZM12.1117 3.33333L12.4242 5.14167C12.4933 5.5425 12.8383 5.83333 13.245 5.83333H16.9358C17.3017 5.83333 17.6217 5.59917 17.7308 5.25L18.3325 3.33333H12.1117ZM19.1667 11.6667C18.7058 11.6667 18.3333 12.04 18.3333 12.5C18.3333 13.8783 17.2117 15 15.8333 15H4.16667C2.78833 15 1.66667 13.8783 1.66667 12.5V5.83333C1.66667 4.455 2.78833 3.33333 4.16667 3.33333H6.66667C7.12667 3.33333 7.5 2.96 7.5 2.5C7.5 2.04 7.12667 1.66667 6.66667 1.66667H4.16667C1.86917 1.66667 0 3.53583 0 5.83333V12.5C0 14.7975 1.86917 16.6667 4.16667 16.6667H9.16667V18.3333H5.83333C5.37333 18.3333 5 18.7067 5 19.1667C5 19.6267 5.37333 20 5.83333 20H14.1667C14.6275 20 15 19.6267 15 19.1667C15 18.7067 14.6275 18.3333 14.1667 18.3333H10.8333V16.6667H15.8333C18.1308 16.6667 20 14.7975 20 12.5C20 12.04 19.6275 11.6667 19.1667 11.6667Z" fill="white"/>
</g>
<defs>
<clipPath id="clip0_1802_596">
<rect width="20" height="20" fill="white"/>
</clipPath>
</defs>
</svg>
