<svg width="14" height="14" viewBox="0 0 14 14" fill="none" xmlns="http://www.w3.org/2000/svg">
<g clip-path="url(#clip0_2452_2443)">
<path d="M5.83333 13.4167C5.83333 13.7387 5.572 14 5.25 14H2.91667C1.30842 14 0 12.6916 0 11.0833V2.91667C0 1.30842 1.30842 0 2.91667 0H7.58333C9.19158 0 10.5 1.30842 10.5 2.91667V4.08333C10.5 4.40533 10.2387 4.66667 9.91667 4.66667C9.59467 4.66667 9.33333 4.40533 9.33333 4.08333V2.91667C9.33333 1.95183 8.54817 1.16667 7.58333 1.16667H2.91667C1.95183 1.16667 1.16667 1.95183 1.16667 2.91667V11.0833C1.16667 12.0482 1.95183 12.8333 2.91667 12.8333H5.25C5.572 12.8333 5.83333 13.0947 5.83333 13.4167ZM8.16667 3.5C8.16667 3.178 7.90533 2.91667 7.58333 2.91667H2.91667C2.59467 2.91667 2.33333 3.178 2.33333 3.5C2.33333 3.822 2.59467 4.08333 2.91667 4.08333H7.58333C7.90533 4.08333 8.16667 3.822 8.16667 3.5ZM2.91667 8.75C2.59467 8.75 2.33333 9.01133 2.33333 9.33333C2.33333 9.65533 2.59467 9.91667 2.91667 9.91667H4.08333C4.40533 9.91667 4.66667 9.65533 4.66667 9.33333C4.66667 9.01133 4.40533 8.75 4.08333 8.75H2.91667ZM14 9.91667C14 12.1683 12.1683 14 9.91667 14C7.665 14 5.83333 12.1683 5.83333 9.91667C5.83333 7.665 7.665 5.83333 9.91667 5.83333C12.1683 5.83333 14 7.665 14 9.91667ZM12.8333 9.91667C12.8333 8.30842 11.5249 7 9.91667 7C8.30842 7 7 8.30842 7 9.91667C7 11.5249 8.30842 12.8333 9.91667 12.8333C11.5249 12.8333 12.8333 11.5249 12.8333 9.91667ZM9.91667 7.58333C9.43367 7.58333 9.04167 7.97533 9.04167 8.45833C9.04167 8.94133 9.43367 9.33333 9.91667 9.33333C10.3997 9.33333 10.7917 8.94133 10.7917 8.45833C10.7917 7.97533 10.3997 7.58333 9.91667 7.58333ZM9.91667 9.91667C9.59467 9.91667 9.33333 10.178 9.33333 10.5V11.6667C9.33333 11.9887 9.59467 12.25 9.91667 12.25C10.2387 12.25 10.5 11.9887 10.5 11.6667V10.5C10.5 10.178 10.2387 9.91667 9.91667 9.91667ZM5.83333 6.41667C5.83333 6.09467 5.572 5.83333 5.25 5.83333H2.91667C2.59467 5.83333 2.33333 6.09467 2.33333 6.41667C2.33333 6.73867 2.59467 7 2.91667 7H5.25C5.572 7 5.83333 6.73867 5.83333 6.41667Z" fill="#316BFF"/>
</g>
<defs>
<clipPath id="clip0_2452_2443">
<rect width="14" height="14" fill="white"/>
</clipPath>
</defs>
</svg>
