<svg width="40" height="40" viewBox="0 0 40 40" fill="none" xmlns="http://www.w3.org/2000/svg">
<g clip-path="url(#clip0_1374_959)">
<path d="M26.6667 23.3337C25.3417 23.3337 25.0817 24.4837 25.0733 24.5121C24.5817 26.1137 20.5183 28.3337 14.1667 28.3337C7.55333 28.3337 3.33333 25.8671 3.33333 24.1671V20.9871C6.06667 22.5354 10.1283 23.3337 14.1667 23.3337C14.4617 23.3337 14.755 23.3287 15.045 23.3221C15.965 23.2971 16.69 22.5304 16.6667 21.6104C16.6417 20.6904 15.91 19.9237 14.9567 19.9887C14.6967 19.9954 14.4333 19.9987 14.1683 19.9987C7.15833 19.9987 3.335 17.5604 3.335 16.3087V12.6538C6.06833 14.2021 10.13 15.0004 14.1683 15.0004C14.4633 15.0004 14.7567 14.9971 15.0467 14.9888C15.9667 14.9638 16.6917 14.1988 16.6683 13.2788C16.6433 12.3588 15.9117 11.5921 14.9583 11.6571C14.6983 11.6638 14.435 11.6671 14.17 11.6671C7.16 11.6671 3.33667 9.22876 3.33667 7.97709V7.02543C3.33667 5.77376 7.16 3.33542 14.17 3.33542C15.24 3.33542 16.295 3.39709 17.3067 3.51709C18.2183 3.61042 19.05 2.97209 19.1583 2.05875C19.2667 1.14542 18.6133 0.315423 17.7 0.20709C9.85333 -0.72791 0 1.62709 0 7.02376V32.9771C0 37.5887 7.12667 40.0004 14.1667 40.0004C21.2067 40.0004 28.3333 37.5887 28.3333 32.9771V25.0004C28.3333 24.9704 28.2483 23.3337 26.6667 23.3337ZM14.1667 36.6671C7.15667 36.6671 3.33333 34.2287 3.33333 32.9771V29.0987C5.89167 30.6887 9.725 31.6671 14.1667 31.6671C18.5433 31.6671 22.3983 30.7204 25 29.1587V32.9771C25 34.2287 21.1767 36.6671 14.1667 36.6671Z" fill="#818181"/>
<path fill-rule="evenodd" clip-rule="evenodd" d="M39.8333 6.49499V11.6367C39.8333 18.3567 33.2117 21.54 31.29 22.3133C31.09 22.3933 30.8783 22.4333 30.6683 22.4333C30.4133 22.4333 30.1567 22.375 29.8967 22.245C28.025 21.3083 21.5 17.585 21.5 11.6367V6.49499C21.5 4.33665 22.8767 2.42999 24.925 1.74832L30.1433 0.0183203C30.4817 -0.0933464 30.8533 -0.0933464 31.1917 0.0183203L36.4083 1.74832C38.4567 2.42832 39.8333 4.33665 39.8333 6.49499ZM35.3567 4.91332C36.0417 5.13999 36.5 5.77499 36.5 6.49499V11.6367C36.5 15.9417 32.46 18.1783 30.7417 18.935C29.2167 18.1167 24.8333 15.4367 24.8333 11.6367V6.49499C24.8333 5.77665 25.2933 5.13999 25.975 4.91332L30.6667 3.35832L35.3567 4.91332Z" fill="#316BFF"/>
</g>
<defs>
<clipPath id="clip0_1374_959">
<rect width="40" height="40" fill="white"/>
</clipPath>
</defs>
</svg>
