<svg width="40" height="40" viewBox="0 0 40 40" fill="none" xmlns="http://www.w3.org/2000/svg">
<g clip-path="url(#clip0_1374_961)">
<path d="M18.2633 25.96C18.0033 26.84 17.0867 27.3483 16.19 27.0817C15.2683 26.8067 14.3083 26.6667 13.3333 26.6667C7.81833 26.6667 3.33333 31.1517 3.33333 36.6667V38.3333C3.33333 39.2533 2.58833 40 1.66667 40C0.745 40 0 39.2533 0 38.3333V36.6667C0 29.315 5.98167 23.3333 13.3333 23.3333C14.63 23.3333 15.9133 23.52 17.1433 23.8867C18.025 24.15 18.5267 25.0783 18.2633 25.96ZM23.3333 10C23.3333 15.515 18.8483 20 13.3333 20C7.81833 20 3.33333 15.515 3.33333 10C3.33333 4.485 7.81833 0 13.3333 0C18.8483 0 23.3333 4.485 23.3333 10ZM20 10C20 6.32333 17.01 3.33333 13.3333 3.33333C9.65667 3.33333 6.66667 6.32333 6.66667 10C6.66667 13.6767 9.65667 16.6667 13.3333 16.6667C17.01 16.6667 20 13.6767 20 10Z" fill="#818181"/>
<path fill-rule="evenodd" clip-rule="evenodd" d="M40.0001 24.0599V29.2016C40.0001 35.9216 33.3784 39.1049 31.4567 39.8783C31.2567 39.9583 31.0451 39.9983 30.8351 39.9983C30.5801 39.9983 30.3234 39.9399 30.0634 39.8099C28.1917 38.8733 21.6667 35.1499 21.6667 29.2016V24.0599C21.6667 21.9016 23.0434 19.9949 25.0917 19.3133L30.3101 17.5833C30.6484 17.4716 31.0201 17.4716 31.3584 17.5833L36.5751 19.3133C38.6234 19.9933 40.0001 21.9016 40.0001 24.0599ZM35.5234 22.4783C36.2084 22.7049 36.6667 23.3399 36.6667 24.0599V29.2016C36.6667 33.5066 32.6267 35.7433 30.9084 36.4999C29.3834 35.6816 25.0001 33.0016 25.0001 29.2016V24.0599C25.0001 23.3416 25.4601 22.7049 26.1417 22.4783L30.8334 20.9233L35.5234 22.4783Z" fill="#316BFF"/>
</g>
<defs>
<clipPath id="clip0_1374_961">
<rect width="40" height="40" fill="white"/>
</clipPath>
</defs>
</svg>
