<svg width="40" height="41" viewBox="0 0 40 41" fill="none" xmlns="http://www.w3.org/2000/svg">
<g clip-path="url(#clip0_1863_2429)">
<path d="M24.3801 15.9824C25.8776 17.4824 28.7051 17.0749 30.7001 15.0774C32.6951 13.0799 33.1001 10.2474 31.6051 8.74988C30.1076 7.24988 27.2801 7.65488 25.2851 9.65238C23.2901 11.6524 22.8851 14.4849 24.3801 15.9824Z" fill="#316BFF"/>
<path d="M39.5275 8.78011C38.62 12.6151 36.1925 17.8451 30.4275 24.3251L29.8275 30.3451C29.6677 31.7875 29.0224 33.1327 27.9975 34.1601L22.0425 40.1251C21.8534 40.3163 21.6087 40.4428 21.3434 40.4865C21.0781 40.5303 20.8058 40.489 20.5653 40.3686C20.3249 40.2483 20.1286 40.055 20.0046 39.8164C19.8807 39.5778 19.8353 39.306 19.875 39.0401L20.55 34.2926C20.65 33.5926 20.5175 32.8101 20.2225 31.9026C20.0365 31.3472 19.8288 30.7993 19.6 30.2601L19.395 29.7551C17.3575 29.2626 15.45 28.1001 13.9175 26.5626C12.3825 25.0251 11.22 23.1151 10.73 21.0751L10.2225 20.8676C9.68411 20.6419 9.13794 20.4351 8.58503 20.2476C7.67753 19.9501 6.89753 19.8176 6.19753 19.9176L1.45753 20.5926C1.1918 20.6317 0.920516 20.5858 0.68238 20.4616C0.444244 20.3374 0.25142 20.1411 0.131414 19.9008C0.011408 19.6605 -0.0296497 19.3885 0.0140978 19.1235C0.0578453 18.8585 0.184163 18.6141 0.375033 18.4251L6.33003 12.4601C7.35503 11.4351 8.69753 10.7851 10.14 10.6251H10.155L16.155 10.0301C22.5125 4.37511 27.7175 1.95511 31.5575 1.02011C33.7825 0.477606 35.5325 0.440105 36.7575 0.550105C37.3675 0.607605 37.845 0.700105 38.1825 0.782605C38.3492 0.825939 38.4825 0.863439 38.5825 0.895106C39.0425 1.04511 39.28 1.22011 39.46 1.63261L39.5325 1.81511C39.7265 2.40043 39.8581 3.00462 39.925 3.61761C40.0625 4.83011 40.0525 6.56261 39.5275 8.78011ZM27.4575 27.4676L27.5575 27.3676L27.29 30.0701C27.1914 30.9333 26.8037 31.7377 26.19 32.3526L22.945 35.6026L23.08 34.6526C23.26 33.3876 22.995 32.1701 22.65 31.1076C22.5234 30.729 22.3867 30.3539 22.24 29.9826C24.085 29.8201 25.895 29.0326 27.4575 27.4676ZM13.0125 13.0001C11.45 14.5651 10.6625 16.3776 10.5025 18.2251C10.1312 18.0785 9.7561 17.9418 9.37753 17.8151C8.31753 17.4701 7.10253 17.2051 5.83753 17.3851L4.88753 17.5201L8.13753 14.2701C8.75003 13.6551 9.55253 13.2676 10.4125 13.1701L13.1125 12.9026L13.0125 13.0001ZM36.5275 3.09761C35.5775 3.01261 34.11 3.03011 32.1625 3.50511C28.2675 4.45511 22.37 7.24511 14.82 14.8076C13.27 16.3576 12.8225 18.1576 13.1025 19.9351C13.37 21.6251 14.31 23.3401 15.7225 24.7551C17.1325 26.1676 18.8475 27.1076 20.5325 27.3776C22.3075 27.6576 24.105 27.2101 25.6525 25.6576C33.35 17.9501 36.1325 12.0476 37.0425 8.19011C37.5 6.26261 37.4925 4.82761 37.3875 3.90761C37.3613 3.67011 37.3238 3.43401 37.275 3.20011C37.0269 3.15334 36.7766 3.11913 36.525 3.09761H36.5275Z" fill="#818181"/>
<path d="M17.5225 30.8474C15.8595 29.9512 14.3395 28.812 13.0125 27.4674C11.5902 26.0575 10.3996 24.4316 9.48503 22.6499C6.73003 25.1299 4.57254 35.2849 4.88754 35.5999C5.20004 35.9149 14.7275 33.3599 17.5225 30.8449V30.8474Z" fill="#818181"/>
</g>
<defs>
<clipPath id="clip0_1863_2429">
<rect width="40" height="40" fill="white" transform="translate(0 0.5)"/>
</clipPath>
</defs>
</svg>
