<svg width="40" height="35" viewBox="0 0 40 35" fill="none" xmlns="http://www.w3.org/2000/svg">
<path d="M40.0001 25.7631C40.0001 27.9965 39.1128 30.1384 37.5336 31.7177C35.9543 33.2969 33.8124 34.1841 31.579 34.1841C29.3456 34.1841 27.2037 33.2969 25.6244 31.7177C24.0452 30.1384 23.158 27.9965 23.158 25.7631C23.158 23.5297 24.0452 21.3878 25.6244 19.8085C27.2037 18.2293 29.3456 17.342 31.579 17.342C33.8124 17.342 35.9543 18.2293 37.5336 19.8085C39.1128 21.3878 40.0001 23.5297 40.0001 25.7631ZM32.1053 22.0789C32.1053 21.9393 32.0499 21.8054 31.9512 21.7067C31.8525 21.608 31.7186 21.5526 31.579 21.5526C31.4394 21.5526 31.3056 21.608 31.2069 21.7067C31.1081 21.8054 31.0527 21.9393 31.0527 22.0789V25.2368H27.8948C27.7552 25.2368 27.6213 25.2922 27.5226 25.3909C27.4239 25.4896 27.3685 25.6235 27.3685 25.7631C27.3685 25.9027 27.4239 26.0366 27.5226 26.1353C27.6213 26.234 27.7552 26.2894 27.8948 26.2894H31.0527V29.4473C31.0527 29.5869 31.1081 29.7208 31.2069 29.8195C31.3056 29.9182 31.4394 29.9736 31.579 29.9736C31.7186 29.9736 31.8525 29.9182 31.9512 29.8195C32.0499 29.7208 32.1053 29.5869 32.1053 29.4473V26.2894H35.2632C35.4028 26.2894 35.5367 26.234 35.6354 26.1353C35.7341 26.0366 35.7895 25.9027 35.7895 25.7631C35.7895 25.6235 35.7341 25.4896 35.6354 25.3909C35.5367 25.2922 35.4028 25.2368 35.2632 25.2368H32.1053V22.0789Z" fill="#316BFF"/>
<path fill-rule="evenodd" clip-rule="evenodd" d="M16.4505 2.68158C16.7019 2.58085 16.9823 2.58085 17.2337 2.68158L29.7979 7.70684L16.8421 12.8879L3.88632 7.70684L16.4505 2.68158ZM17.8947 14.7363L31.5789 9.26263L31.5789 15.2369C32.2999 15.2369 33.004 15.3094 33.6842 15.4475V7.70684C33.6842 7.49663 33.6212 7.29124 33.5034 7.11714C33.3855 6.94304 33.2183 6.8082 33.0232 6.73L18.0147 0.725791C17.262 0.424736 16.4222 0.424736 15.6695 0.725791L0.661053 6.73C0.465921 6.8082 0.298674 6.94304 0.180857 7.11714C0.0630395 7.29124 4.89262e-05 7.49663 0 7.70684V25.9426C0.000434377 26.3636 0.127035 26.7747 0.363457 27.1229C0.599879 27.4712 0.935266 27.7406 1.32632 27.8963L16.4505 33.9468C16.7019 34.0476 16.9823 34.0476 17.2337 33.9468L22.8779 31.6892C22.4809 31.1073 22.1407 30.4836 21.8653 29.826L17.8947 31.4142V14.7363ZM15.7895 14.7342V31.4163L2.10526 25.9426V9.26263L15.7895 14.7342Z" fill="#818181"/>
</svg>
