<svg width="40" height="37" viewBox="0 0 40 37" fill="none" xmlns="http://www.w3.org/2000/svg">
<g clip-path="url(#clip0_1863_2416)">
<path d="M40 31.4902C39.8418 31.7586 39.6054 31.9298 39.3164 32.0647C36.2807 33.4814 33.2466 34.9011 30.2202 36.3366C29.7935 36.5394 29.4372 36.5401 29.0097 36.3366C26.1361 34.9704 23.2499 33.6292 20.3747 32.266C20.0998 32.1356 19.8955 32.1469 19.6253 32.2743C16.7392 33.6435 13.8436 34.9953 10.9559 36.3622C10.573 36.5432 10.2347 36.5484 9.84791 36.3652C6.7746 34.9094 3.69659 33.4625 0.613889 32.024C0.187149 31.8242 -0.00155635 31.5453 9.66345e-06 31.0846C0.0109718 27.6873 0.0101888 24.2901 0.000792672 20.8928C-0.000773345 20.4472 0.185583 20.1713 0.599794 19.9828C3.57836 18.6257 6.55144 17.2558 9.53158 15.901C9.78057 15.7879 9.862 15.6559 9.85496 15.3966C9.83538 14.7075 9.84556 14.0176 9.84948 13.3285C9.85261 12.8075 10.1517 12.472 10.6121 12.4622C11.0866 12.4517 11.4077 12.797 11.41 13.3323C11.4139 14.0591 11.4163 14.7866 11.4069 15.5134C11.4045 15.6831 11.4523 15.7781 11.6191 15.858C14.1059 17.0492 16.588 18.248 19.0725 19.4437C19.1039 19.4588 19.143 19.4581 19.1798 19.4656C19.2558 19.3691 19.2197 19.2666 19.2197 19.1731C19.2221 16.44 19.2213 13.707 19.2229 10.974C19.2229 10.7975 19.226 10.6618 19.006 10.557C16.5411 9.38389 14.0848 8.19417 11.6261 7.01048C11.5697 6.98334 11.5079 6.96901 11.4272 6.94111C11.4186 7.07155 11.4194 7.18162 11.4037 7.28944C11.3466 7.67093 11.013 7.94914 10.6247 7.94612C10.2355 7.9431 9.8808 7.66038 9.862 7.27737C9.83538 6.72699 9.83851 6.17435 9.85887 5.62322C9.87218 5.27113 10.1345 5.08642 10.4438 4.93789C13.3574 3.54008 16.2756 2.15132 19.172 0.721843C19.7686 0.427806 20.2455 0.427806 20.8406 0.721089C23.7056 2.13247 26.5886 3.50992 29.474 4.88285C29.9681 5.11808 30.1709 5.43474 30.1678 5.97154C30.149 9.11775 30.1615 12.2647 30.1521 15.4117C30.1521 15.6552 30.2163 15.7781 30.4559 15.8874C33.3891 17.2204 36.3144 18.5684 39.2452 19.9059C39.556 20.0476 39.8309 20.2128 40 20.5098V31.4917V31.4902ZM9.61379 34.5723C9.61379 31.6516 9.60988 28.7964 9.62162 25.9412C9.6224 25.7022 9.4799 25.6494 9.32095 25.574C7.36264 24.6557 5.40434 23.7382 3.44681 22.8199C2.83294 22.5319 2.21984 22.2431 1.59108 21.9483C1.58012 22.0237 1.56994 22.0592 1.56994 22.0946C1.56916 24.9128 1.57151 27.7311 1.56446 30.5486C1.56446 30.7423 1.63493 30.8268 1.81033 30.9074C2.93316 31.4239 4.04973 31.9539 5.16787 32.4794C6.63288 33.1685 8.0971 33.8576 9.61457 34.5716L9.61379 34.5723ZM20.8077 21.9476C20.7959 22.023 20.7858 22.0584 20.7858 22.0931C20.785 24.9113 20.7905 27.7296 20.7756 30.5478C20.774 30.8072 20.9259 30.8599 21.095 30.9399C23.5529 32.0956 26.0108 33.2514 28.471 34.4012C28.5775 34.451 28.6754 34.558 28.8296 34.5113C28.8296 31.6538 28.8288 28.7979 28.8327 25.9427C28.8327 25.7889 28.7999 25.6954 28.6433 25.6223C26.0437 24.4077 23.4464 23.1863 20.8077 21.9468V21.9476ZM19.2213 21.9604C19.096 22.0117 19.0154 22.0411 18.9371 22.078C16.4314 23.2542 13.9274 24.4356 11.4163 25.6012C11.1884 25.7067 11.1728 25.8409 11.1735 26.0377C11.1775 28.669 11.1759 31.3002 11.1759 33.9315C11.1759 34.1283 11.1759 34.3258 11.1759 34.5535C11.2558 34.5264 11.3043 34.5143 11.3474 34.4939C13.9 33.2952 16.451 32.0919 19.0091 30.9037C19.2331 30.7996 19.2213 30.6586 19.2213 30.4845C19.2213 27.7529 19.2213 25.0214 19.2213 22.2899C19.2213 22.1949 19.2213 22.0999 19.2213 21.9604ZM30.3917 34.5527C30.4825 34.5218 30.5319 34.5105 30.5765 34.4894C33.1174 33.2952 35.6559 32.0964 38.2014 30.9127C38.4324 30.8057 38.4395 30.6654 38.4395 30.4717C38.4363 27.7401 38.4371 25.0086 38.4371 22.2771C38.4371 22.1843 38.4371 22.0908 38.4371 22.0132C38.3768 21.9973 38.362 21.9883 38.3533 21.9921C35.7522 23.2089 33.1526 24.4273 30.5507 25.6404C30.4035 25.709 30.3901 25.8055 30.3901 25.9382C30.3925 28.7949 30.3925 31.6516 30.3925 34.5527H30.3917ZM28.5955 6.9577C28.5156 6.96599 28.4874 6.96222 28.4671 6.97278C25.9724 8.17306 23.4801 9.3771 20.9815 10.5691C20.7811 10.6648 20.7826 10.793 20.7826 10.9589C20.785 13.716 20.7834 16.4725 20.7865 19.2296C20.7865 19.3065 20.7388 19.403 20.8547 19.4747C20.9063 19.4528 20.9643 19.4302 21.0207 19.403C23.4558 18.2322 25.8902 17.0583 28.3293 15.8934C28.5313 15.7969 28.6033 15.6876 28.6018 15.469C28.59 14.2031 28.5963 12.938 28.5963 11.6721V6.95846L28.5955 6.9577ZM21.846 20.6885C21.8663 20.8054 21.9571 20.8121 22.0229 20.8431C24.4808 21.9996 26.941 23.1516 29.3949 24.3142C29.5915 24.4069 29.7285 24.3564 29.8961 24.278C31.8638 23.3507 33.8338 22.4271 35.8031 21.502C36.3191 21.26 36.8335 21.0165 37.3738 20.7624C37.308 20.7104 37.2822 20.681 37.2501 20.6659C34.6998 19.4935 32.148 18.3241 29.5993 17.148C29.4239 17.0673 29.2939 17.102 29.1342 17.1797C27.8266 17.8152 26.5143 18.4433 25.2043 19.0736C24.083 19.6126 22.9617 20.1524 21.8467 20.6885H21.846ZM18.2371 20.7262C15.7095 19.5071 13.254 18.3256 10.8024 17.1352C10.6137 17.0432 10.4861 17.1231 10.3365 17.1917C7.8669 18.3241 5.39572 19.4543 2.92768 20.589C2.83372 20.632 2.69356 20.6335 2.6685 20.7797C5.16474 21.9514 7.66097 23.1185 10.1502 24.2984C10.3561 24.3964 10.5025 24.364 10.6857 24.2773C12.4201 23.4577 14.1576 22.645 15.8943 21.8292C16.6491 21.4749 17.4039 21.119 18.2378 20.7262H18.2371ZM12.4201 5.67072C12.4835 5.72576 12.5 5.74687 12.5211 5.75742C14.9453 6.92528 17.3726 8.08937 19.7921 9.26552C19.9934 9.36353 20.1288 9.30472 20.2932 9.22556C22.6352 8.09615 24.978 6.96901 27.3192 5.8381C27.403 5.79814 27.5243 5.79361 27.5541 5.65489C25.0978 4.46969 22.6407 3.286 20.1875 2.09703C20.0215 2.01636 19.901 2.06688 19.7561 2.13775C19.0624 2.47778 18.3631 2.80725 17.667 3.14275C15.9295 3.97963 14.192 4.81726 12.4201 5.67072Z" fill="#818181"/>
<path d="M11.4091 10.2002C11.4107 10.6179 11.045 10.9632 10.612 10.9542C10.1931 10.9451 9.85094 10.6089 9.84937 10.2055C9.8478 9.78707 10.2111 9.44328 10.6457 9.45232C11.0638 9.46137 11.4076 9.79838 11.4091 10.201V10.2002Z" fill="#0027F3"/>
</g>
<defs>
<clipPath id="clip0_1863_2416">
<rect width="40" height="36" fill="white" transform="translate(0 0.5)"/>
</clipPath>
</defs>
</svg>
