<svg width="12" height="12" viewBox="0 0 12 12" fill="none" xmlns="http://www.w3.org/2000/svg">
<g clip-path="url(#clip0_2431_1194)">
<path d="M3.64294 4.54155C3.60093 3.98067 3.2251 3.60915 2.66254 3.57219L2.53942 3.56403L2.52862 3.44139C2.51182 3.25491 2.5207 3.05595 2.52934 2.86371C2.53846 2.65947 2.5471 1.21539 2.52766 1.04067C2.5003 0.797549 2.29558 0.670349 2.10766 0.670349C2.02606 0.670349 1.87366 0.694829 1.76854 0.857789C1.6747 1.00275 1.69438 2.81691 1.70374 3.08739C1.7143 3.39435 1.71694 3.46731 1.65766 3.52875L1.61638 3.57123L1.5571 3.57243C1.34254 3.57675 1.11502 3.66771 0.932855 3.82203C0.745895 3.98043 0.631175 4.18251 0.610055 4.39107C0.561575 4.86867 0.569015 5.87619 0.608855 6.33555C0.647255 6.77715 1.08214 7.16235 1.55854 7.17675L1.69798 7.18107V7.32051L1.7023 10.9378C1.7371 11.2076 1.9363 11.3285 2.12014 11.3285C2.2795 11.3285 2.46766 11.2376 2.5243 10.9841L2.5279 7.32051V7.18515L2.66326 7.17699C3.1339 7.14867 3.5047 6.85563 3.60766 6.43083C3.6919 6.08331 3.67341 4.94811 3.64294 4.54155ZM2.81446 6.34851H1.41142V4.40091H2.81446V6.34851Z" fill="white"/>
<path d="M11.3709 4.41433C11.3508 4.19833 11.238 3.99049 11.0529 3.82921C10.8725 3.67177 10.6425 3.57817 10.4217 3.57241L10.2921 3.56905L10.2818 3.43993C10.2677 3.26065 10.2751 3.07249 10.2823 2.89057C10.29 2.69617 10.2974 1.26169 10.2804 1.09105C10.2499 0.782169 10.032 0.672729 9.85462 0.672729C9.67726 0.672729 9.49534 0.774729 9.45718 1.00297C9.44494 1.07545 9.45239 2.61001 9.45839 2.83801C9.47375 3.41569 9.47015 3.46753 9.41111 3.52849L9.37199 3.56929L9.31559 3.57241C9.04919 3.58681 8.81543 3.68425 8.63999 3.85345C8.46383 4.02337 8.35943 4.25305 8.33783 4.51801C8.30423 4.93081 8.29271 6.17689 8.38511 6.48601C8.50295 6.87937 8.86847 7.15081 9.31607 7.17697L9.45143 7.18489V7.32049L9.45527 10.9839C9.51287 11.2383 9.70175 11.3295 9.86159 11.3295C9.96119 11.3295 10.0562 11.2947 10.1297 11.2313C10.2105 11.1619 10.2614 11.0604 10.2773 10.9378L10.2813 7.32049V7.18297L10.4191 7.17697C10.8919 7.15633 11.2797 6.82345 11.3683 6.36481C11.3484 6.05857 11.3609 5.73457 11.3731 5.42089C11.3865 5.08153 11.4002 4.73065 11.3709 4.41433ZM10.5681 6.34849H9.16511V4.40089H10.5681V6.34849Z" fill="white"/>
<path d="M7.50674 6.15C7.48658 5.89489 7.38026 5.67072 7.19954 5.50248C7.02266 5.3376 6.78506 5.2416 6.53042 5.23201L6.39218 5.22696L6.3917 5.08849L6.38426 0.972725C6.3197 0.751685 6.13946 0.672485 5.98994 0.672485C5.84042 0.672485 5.64818 0.756245 5.59154 0.991205L5.58794 5.08824V5.22649L5.44946 5.23201C4.99754 5.24976 4.62146 5.53272 4.51394 5.93616C4.42562 6.26688 4.43954 7.49809 4.4729 7.91857C4.4933 8.17561 4.5989 8.39953 4.77866 8.56585C4.95386 8.7276 5.19266 8.82384 5.4509 8.83657L5.57786 8.8428L5.58746 8.96953C5.60186 9.15913 5.59418 9.3576 5.58674 9.5496C5.57882 9.75144 5.57162 10.7844 5.5877 10.9637C5.6117 11.231 5.8193 11.3258 5.9897 11.3258C6.17378 11.3258 6.36962 11.214 6.39194 10.9637C6.40802 10.7844 6.40058 9.75144 6.3929 9.5496C6.38546 9.3576 6.37778 9.15913 6.39218 8.96953L6.40178 8.84185L6.5297 8.83657C6.74306 8.82769 6.95258 8.75497 7.11962 8.63209C7.2929 8.50465 7.41266 8.33185 7.4657 8.13241C7.55378 7.80097 7.5401 6.57024 7.50674 6.15ZM6.67826 8.00809H5.30114V6.06048H6.67826V8.00809Z" fill="white"/>
</g>
<defs>
<clipPath id="clip0_2431_1194">
<rect width="12" height="12" fill="white"/>
</clipPath>
</defs>
</svg>