<svg width="13" height="13" viewBox="0 0 13 13" fill="none" xmlns="http://www.w3.org/2000/svg">
<path d="M7.5813 2.70978C7.66481 2.68008 7.76234 2.68551 7.8606 2.7215C8.87986 3.09577 9.89896 3.47094 10.9182 3.84552C10.9372 3.85249 10.9566 3.85925 10.9768 3.86603L11.0393 3.88654L11.0911 3.909C11.141 3.93441 11.1828 3.96866 11.2141 4.01251C11.2556 4.07077 11.2748 4.14065 11.2747 4.21759L11.2688 8.76447L11.2659 8.85236C11.2514 9.0205 11.1184 9.15114 10.9504 9.15118C10.7846 9.15118 10.6475 9.02087 10.6321 8.85333C10.6283 8.81049 10.6301 8.76489 10.6301 8.73029V4.65997C10.2899 4.78457 9.95593 4.90733 9.62231 5.03009L6.57544 6.15021C6.54173 6.16242 6.53281 6.17229 6.52954 6.17755C6.52524 6.18455 6.52075 6.19898 6.52075 6.23615C6.52294 7.97817 6.52353 9.72061 6.51978 11.4627C6.51978 11.4738 6.5193 11.4831 6.51978 11.491C6.52772 11.4886 6.53797 11.4867 6.55005 11.4822C7.26129 11.2172 7.97576 10.9578 8.68774 10.6961C8.74527 10.6748 8.82699 10.6398 8.91919 10.66C9.05342 10.6894 9.15838 10.8038 9.17407 10.9402C9.19066 11.0862 9.10484 11.2207 8.95728 11.2772C8.70208 11.3745 8.4451 11.4676 8.1897 11.5613C7.60856 11.7743 7.02684 11.9858 6.44653 12.2L6.44751 12.201C6.43348 12.2062 6.41864 12.2095 6.40747 12.2127C6.39552 12.2162 6.3865 12.2193 6.37817 12.2225C6.36232 12.2285 6.35457 12.2344 6.34985 12.241C6.33668 12.2591 6.31558 12.2693 6.29321 12.2693H6.10571V12.2664C6.08422 12.2664 6.06353 12.2598 6.05005 12.242C6.0435 12.2334 6.0337 12.2273 6.01587 12.2205C6.00652 12.217 5.9965 12.2135 5.98364 12.2098C5.97156 12.2062 5.95645 12.2015 5.94165 12.1961C5.11665 11.8914 4.29054 11.5891 3.46509 11.285C3.37507 11.2517 3.30344 11.1969 3.26196 11.1248C3.21993 11.0517 3.21217 10.9664 3.2395 10.8817C3.26931 10.7889 3.33074 10.7187 3.41431 10.6834C3.49685 10.6487 3.59331 10.6518 3.69067 10.6873C4.09673 10.8349 4.50239 10.9846 4.90747 11.1336C5.22794 11.2514 5.55219 11.367 5.87231 11.4901C5.87432 11.4908 5.87633 11.4913 5.87817 11.492C5.87821 11.4892 5.87915 11.4863 5.87915 11.4832L5.87817 6.2215C5.87817 6.19088 5.87563 6.18027 5.87329 6.1756C5.87286 6.17478 5.86892 6.16756 5.84302 6.15802V6.15704C4.48458 5.65931 3.12718 5.1582 1.76978 4.65802V8.7547C1.76978 8.80553 1.77453 8.88265 1.74146 8.95587C1.68325 9.08478 1.54263 9.17092 1.40161 9.14728C1.25835 9.1234 1.14888 9.01012 1.13403 8.86407C1.12921 8.81693 1.1311 8.76828 1.1311 8.72833C1.1311 7.29075 1.13142 5.8534 1.1311 4.41583L1.12524 4.23029C1.12341 4.15258 1.14082 4.08037 1.17993 4.02032C1.21923 3.96013 1.27787 3.91682 1.34985 3.89044C2.41332 3.50112 3.47749 3.11246 4.54126 2.72345C4.63417 2.68949 4.72564 2.68135 4.80591 2.70587C4.88767 2.731 4.95082 2.78789 4.98853 2.86896C5.02972 2.95759 5.03054 3.05133 4.99146 3.13361C4.95274 3.21502 4.87874 3.27877 4.78149 3.31525C4.40236 3.45717 4.02145 3.59561 3.64185 3.73517C3.22241 3.88965 2.80206 4.04329 2.37817 4.19904C3.6329 4.66222 4.8883 5.12451 6.14282 5.58868C6.18481 5.60429 6.2136 5.60568 6.24927 5.59259C7.50706 5.12775 8.76564 4.66388 10.0237 4.20001C9.51223 4.01174 9.008 3.8267 8.50415 3.64142C8.21585 3.53531 7.92711 3.42889 7.63892 3.32208C7.54004 3.28542 7.46154 3.22943 7.41724 3.15314C7.37181 3.07487 7.36795 2.9845 7.40063 2.89435C7.43313 2.80485 7.49647 2.74011 7.5813 2.70978Z" fill="white" stroke="white" stroke-width="0.14" stroke-linecap="round" stroke-linejoin="round"/>
<path d="M2.96667 9.10101C3.05278 9.10427 3.1335 9.14124 3.19714 9.20551C3.32712 9.33694 3.33819 9.53394 3.20886 9.68011C3.11325 9.78823 3.00627 9.88925 2.91003 9.98578C2.67296 10.2235 2.43513 10.4607 2.19714 10.6977C2.19197 10.7029 2.18821 10.7065 2.18445 10.7104C2.18359 10.7113 2.18226 10.7116 2.18152 10.7123C2.52819 11.4257 2.05056 12.1722 1.41003 12.2739C1.39223 12.2889 1.37154 12.3002 1.34753 12.3002H0.995972C0.982728 12.3002 0.969872 12.2974 0.957886 12.2924L0.925659 12.2709C0.922383 12.2677 0.920628 12.2629 0.917847 12.2592C0.915297 12.2588 0.911779 12.259 0.907104 12.2582L0.866089 12.2485C0.259771 12.0517 -0.0547097 11.3917 0.176636 10.7983C0.407109 10.208 1.09095 9.9366 1.66882 10.2094C1.67706 10.2133 1.68282 10.2161 1.6864 10.2172C1.68962 10.215 1.69514 10.2105 1.70398 10.2016C2.01156 9.88998 2.32252 9.58174 2.63171 9.27289C2.6582 9.2464 2.69004 9.21447 2.72546 9.18597C2.79686 9.12862 2.88084 9.09782 2.96667 9.10101ZM1.20496 10.8002C0.98646 10.798 0.803908 10.9731 0.797729 11.1928C0.791784 11.4083 0.979797 11.6015 1.1991 11.602C1.41426 11.6023 1.59824 11.4194 1.59949 11.2026C1.60084 10.9851 1.421 10.8026 1.20496 10.8002Z" fill="white" stroke="white" stroke-width="0.2" stroke-linecap="round" stroke-linejoin="round"/>
<path d="M11.2068 10.8007C10.9883 10.7974 10.8039 10.9743 10.7996 11.1903C10.7954 11.4127 10.9782 11.6002 11.1981 11.6014C11.412 11.6028 11.5976 11.4208 11.6014 11.203C11.6046 10.9895 11.4235 10.804 11.2068 10.8007ZM12.2996 11.4032C12.2996 11.4348 12.2842 11.4636 12.2596 11.4823C12.2591 11.4849 12.2584 11.4884 12.2576 11.493L12.2469 11.536C12.1152 11.9102 11.8558 12.1551 11.4754 12.2665H11.4744C11.4619 12.27 11.4503 12.2718 11.4412 12.2723C11.4347 12.2727 11.4287 12.2725 11.4236 12.2723C11.4055 12.2894 11.3822 12.3006 11.3563 12.3007H11.0047C10.9715 12.3007 10.9428 12.2836 10.9246 12.2587V12.2596C10.9232 12.259 10.9203 12.2589 10.9158 12.2577C10.9079 12.2555 10.8999 12.2539 10.8856 12.2509L10.8367 12.2372C10.2266 12.019 9.92864 11.3359 10.201 10.7469L10.2137 10.7118C10.2142 10.7142 10.2134 10.7072 10.1883 10.6825C9.86527 10.3645 9.54525 10.0436 9.22638 9.72253C9.15077 9.64635 9.10394 9.55453 9.09943 9.45789C9.09498 9.35965 9.13563 9.2685 9.20978 9.19812C9.28153 9.13011 9.3711 9.09372 9.46661 9.10046C9.56045 9.10721 9.64777 9.15505 9.7215 9.22839C10.0395 9.54452 10.359 9.86067 10.6736 10.1815C10.6869 10.1951 10.6955 10.2036 10.702 10.2079C10.7078 10.2117 10.7107 10.2118 10.7108 10.2118H10.7127C10.714 10.2118 10.7162 10.2115 10.7195 10.2108C10.7273 10.2093 10.7393 10.2054 10.7576 10.1971C11.3695 9.92201 12.0686 10.256 12.2576 10.8973C12.2632 10.9161 12.2646 10.9343 12.2654 10.9442C12.266 10.951 12.266 10.9532 12.2664 10.9579V10.9589C12.286 10.9775 12.2996 11.0014 12.2996 11.0292V11.4032Z" fill="white" stroke="white" stroke-width="0.2" stroke-linecap="round" stroke-linejoin="round"/>
<path d="M6.21997 0.100403C6.73138 0.107657 7.18632 0.487215 7.27954 0.987122C7.37806 1.5157 7.0904 2.04173 6.58618 2.22638C6.55342 2.23837 6.55101 2.24499 6.55298 2.242C6.55411 2.24021 6.54979 2.24596 6.55005 2.28009L6.55103 3.89728C6.55065 4.02943 6.50483 4.14752 6.41724 4.22247C6.32746 4.29927 6.20622 4.32043 6.08521 4.27911C6.01 4.25346 5.94832 4.20619 5.90649 4.13849C5.86569 4.07234 5.84831 3.99307 5.8479 3.90704L5.84692 3.08673L5.84985 2.2879L5.84497 2.242C5.84449 2.2415 5.84329 2.23969 5.84106 2.2381C5.83613 2.2346 5.82647 2.22974 5.80981 2.22345C5.30109 2.03212 5.01838 1.51457 5.11938 0.984192C5.21715 0.469776 5.69021 0.0928406 6.21997 0.100403ZM6.19653 0.798645C5.97743 0.801435 5.80248 0.979776 5.80298 1.20099L5.802 1.20392C5.8041 1.42326 5.98092 1.59893 6.19849 1.59943C6.41694 1.59988 6.59542 1.42278 6.59692 1.20294C6.59825 0.977205 6.41613 0.795913 6.19653 0.798645Z" fill="white" stroke="white" stroke-width="0.2" stroke-linecap="round" stroke-linejoin="round"/>
</svg>