<svg width="13" height="13" viewBox="0 0 13 13" fill="none" xmlns="http://www.w3.org/2000/svg">
<g clip-path="url(#clip0_2435_1573)">
<path d="M0.766457 3.62929C0.820797 3.52867 0.834837 3.41505 0.881897 3.30767C1.0652 2.88985 1.50746 2.56693 1.96506 2.53131C2.44398 2.49387 2.96918 2.56381 3.45278 2.53001C3.79806 0.946348 5.65706 0.217568 6.97162 1.22637C7.26568 1.45205 7.50202 1.75339 7.64944 2.09425C7.68116 2.16783 7.78646 2.52195 7.81636 2.53209C8.52902 2.60567 9.39118 2.33709 9.9858 2.82823C10.2461 3.04325 10.408 3.33705 10.4655 3.67037L10.4702 5.18851C10.4803 5.21867 10.8342 5.32397 10.9078 5.35595C11.2486 5.50363 11.5497 5.74049 11.7751 6.03481C12.7826 7.35041 12.052 9.20889 10.4678 9.55235C10.4307 10.0406 10.5071 10.5791 10.4637 11.0614C10.4226 11.519 10.0786 11.9638 9.65638 12.1362L9.32072 12.2374L7.25944 12.2363C6.83772 12.0645 6.975 11.6929 6.85748 11.3502C6.45552 10.1779 4.73796 10.1987 4.36902 11.3716C4.2619 11.7119 4.38748 12.1157 3.94366 12.2348L1.88238 12.2337C1.29738 12.0931 0.902957 11.6989 0.762817 11.1129L0.763857 9.02923C0.902957 8.61245 1.294 8.73153 1.62732 8.62701C2.80044 8.25911 2.82306 6.54155 1.65124 6.13855C1.30856 6.02077 0.937017 6.15753 0.765677 5.73555L0.766717 3.62955L0.766457 3.62929ZM7.77736 11.338L9.17564 11.3411C9.36414 11.3201 9.54588 11.1625 9.56798 10.9717C9.63168 10.4176 9.52326 9.74631 9.56798 9.17847C9.58566 8.95565 9.70708 8.74349 9.94394 8.70293C10.2856 8.64469 10.4491 8.68239 10.7637 8.46997C11.6662 7.86027 11.4558 6.43963 10.4221 6.13231C10.0386 6.01843 9.61816 6.15779 9.57006 5.59515C9.52144 5.02679 9.6322 4.36197 9.57188 3.80193C9.55108 3.60875 9.39508 3.45301 9.20242 3.43195C8.64238 3.37111 7.9773 3.48109 7.4092 3.43195C7.13178 3.40803 6.97396 3.26685 6.9308 2.99177C6.87386 2.62803 6.88894 2.44915 6.637 2.14313C5.97114 1.33479 4.64878 1.59245 4.36356 2.60073C4.30376 2.81263 4.34016 3.07107 4.21718 3.23877C4.11864 3.37345 3.98786 3.41739 3.82588 3.42987C3.26324 3.47355 2.54954 3.35421 2.01212 3.42987C1.81946 3.45717 1.67854 3.65581 1.6619 3.84145C1.62264 4.27825 1.6905 4.77511 1.66424 5.21815C2.97828 5.49349 3.73774 6.84445 3.29652 8.12287C3.04952 8.83865 2.39926 9.38855 1.66268 9.54741L1.66424 10.9842C1.70558 11.1628 1.83272 11.2902 2.01134 11.3315L3.4481 11.3346C3.7419 9.99981 5.1472 9.22267 6.43758 9.73123C7.10968 9.99617 7.64164 10.6259 7.77736 11.3375V11.338Z" fill="url(#paint0_linear_2435_1573)"/>
</g>
<defs>
<linearGradient id="paint0_linear_2435_1573" x1="0.762818" y1="11.7" x2="7.1669" y2="-1.21435" gradientUnits="userSpaceOnUse">
<stop stop-color="#FFA65F"/>
<stop offset="0.455" stop-color="#A44DCB"/>
<stop offset="1" stop-color="#1DEEFF"/>
</linearGradient>
<clipPath id="clip0_2435_1573">
<rect width="13" height="13" fill="white"/>
</clipPath>
</defs>
</svg>