<svg width="20" height="20" viewBox="0 0 20 20" fill="none" xmlns="http://www.w3.org/2000/svg">
<g clip-path="url(#clip0_2431_172)">
<path d="M17.6908 17.6812C16.8652 18.5104 15.6728 19.0348 14.5004 19.1C11.4224 19.2712 8.14879 19.0028 5.05759 19.0556C2.77719 18.7092 1.02599 16.8052 0.897587 14.4912C0.726387 11.4132 0.994787 8.1396 0.941987 5.0484C1.28519 2.7664 3.19679 1.0168 5.50639 0.888405C8.11039 0.743605 10.8512 0.996405 13.4692 0.895205C13.9732 0.954005 14.408 1.1488 14.8008 1.4604C15.9272 2.3548 16.934 3.582 18.0652 4.4928C18.6212 4.9836 19.0392 5.57 19.1068 6.334C18.9864 9.0236 19.2688 11.8556 19.1088 14.5284C19.0396 15.684 18.502 16.866 17.6904 17.6808L17.6908 17.6812ZM13.0384 2.104L5.58279 2.102C3.71839 2.2116 2.23759 3.67 2.11199 5.5352C2.25479 8.4568 1.92759 11.5512 2.11199 14.4528C2.22879 16.2904 3.70839 17.7684 5.54479 17.8856C8.45679 18.072 11.566 17.7432 14.4984 17.8836C16.3464 17.7356 17.7884 16.2712 17.8956 14.4148L17.8936 6.35201H15.1812C14.2444 6.35201 13.038 5.146 13.038 4.2088V2.1036L13.0384 2.104ZM16.9456 5.1384L14.2524 2.6348V4.1332C14.2524 4.5116 14.8792 5.1384 15.2576 5.1384H16.9456Z" fill="#4A4A4A"/>
<path d="M10.6109 9.38719H12.8681C13.0993 9.38719 13.3401 9.75039 13.3453 9.97519C13.3509 10.2148 13.1177 10.6012 12.8681 10.6012H10.6109V12.8584C10.6109 13.0896 10.2477 13.3304 10.0229 13.3356C9.78325 13.3412 9.39685 13.108 9.39685 12.8584V10.6012H7.13965C6.90845 10.6012 6.66765 10.238 6.66245 10.0132C6.65685 9.77359 6.89005 9.38719 7.13965 9.38719H9.39685V7.12999C9.39685 6.89879 9.76005 6.65799 9.98485 6.65279C10.2245 6.64719 10.6109 6.88039 10.6109 7.12999V9.38719Z" fill="#4A4A4A"/>
</g>
<defs>
<clipPath id="clip0_2431_172">
<rect width="20" height="20" fill="white"/>
</clipPath>
</defs>
</svg>