<svg width="20" height="20" viewBox="0 0 20 20" fill="none" xmlns="http://www.w3.org/2000/svg">
<g clip-path="url(#clip0_2431_176)">
<path d="M13.89 0.869602C14.5368 1.0148 15.2304 1.0944 15.8224 1.4144C16.3592 1.7044 16.482 2.2492 16.0988 2.74L13.3932 5.4548C13.3792 5.534 14.3964 6.4616 14.5184 6.6056C15.4516 5.7492 16.3296 4.8072 17.24 3.9168C18.6596 2.954 18.9444 5.1948 19.1296 6.1092V7.1784C18.9812 8.0284 18.7648 8.8172 18.3248 9.5636C17.0828 11.6696 14.8144 12.6136 12.4156 12.306C12.2824 12.2888 12.1336 12.1972 12.0012 12.258L5.88845 18.3712C2.97925 20.7548 -0.752351 17.0192 1.62725 14.11L7.74125 7.9968C7.78205 7.9084 7.62805 7.1636 7.61685 6.9816C7.45325 4.3028 9.19605 1.8516 11.7512 1.1008L12.8204 0.869202H13.8896L13.89 0.869602ZM13.9256 2.5448C11.2212 2.1996 8.91485 4.5088 9.30165 7.2224C9.36525 7.668 9.63965 8.152 9.42485 8.5768C7.26645 10.8884 4.92565 13.042 2.75325 15.3432C1.90645 16.7556 3.62165 18.1756 4.85285 17.0864L11.2332 10.7064C11.6976 10.2708 12.298 10.6312 12.8424 10.7028C14.8184 10.9616 16.7336 9.7332 17.3012 7.828C17.4712 7.2572 17.5224 6.6676 17.4536 6.074C17.392 6.058 17.3824 6.0996 17.3468 6.1272C16.5504 6.738 15.8072 7.8072 15.012 8.462C14.6856 8.6828 14.3004 8.6444 13.9956 8.4096C13.1748 7.7776 12.4108 6.6784 11.5896 6.0036C11.3588 5.704 11.32 5.336 11.5216 5.0072L13.872 2.6524L13.9252 2.5456L13.9256 2.5448Z" fill="#4A4A4A"/>
</g>
<defs>
<clipPath id="clip0_2431_176">
<rect width="20" height="20" fill="white"/>
</clipPath>
</defs>
</svg>