<svg width="20" height="20" viewBox="0 0 20 20" fill="none" xmlns="http://www.w3.org/2000/svg">
<path d="M3.77681 3.71359C6.38761 3.82959 9.19401 3.52039 11.7828 3.70039C12.174 3.72759 12.36 3.82439 12.6528 4.06959C13.318 4.62599 14.58 5.88319 15.1296 6.54959C15.3476 6.81399 15.4532 7.00799 15.4808 7.36039V16.8892C15.4144 17.8484 14.8016 18.5592 13.8352 18.6896H3.76401C2.90641 18.618 2.21441 17.9364 2.11841 17.0824L2.12001 5.27079C2.24721 4.42999 2.93441 3.79399 3.77681 3.71359ZM11.026 4.94159H3.76521C3.58881 4.94159 3.27481 5.34159 3.31841 5.54039C3.33961 9.37759 3.28401 13.2224 3.34641 17.0548C3.41481 17.3188 3.69561 17.4832 3.95761 17.4892H13.6412C13.832 17.5424 14.24 17.1936 14.24 17.0424V8.15559H11.8584C11.58 8.15559 11.026 7.60119 11.026 7.32319V4.94159ZM13.7752 6.95519L12.2264 5.40639V6.95519H13.7752Z" fill="#4A4A4A"/>
<path d="M5.78762 1.31039L13.8536 1.31959L14.0468 1.43599L17.7632 5.15439L17.8612 5.32719L17.8812 15.7276C17.8132 16.4312 16.762 16.456 16.6788 15.6872L16.6812 5.88759L16.6424 5.73279L13.3988 2.50959L5.89802 2.49839C5.21882 2.38399 5.13962 1.54239 5.78722 1.31039H5.78762Z" fill="#4A4A4A"/>
<path d="M5.82678 14.244L11.7004 14.2384C12.4412 14.396 12.4008 15.3872 11.6264 15.4744L5.89878 15.4708C5.19598 15.34 5.13158 14.448 5.82678 14.244Z" fill="#4A4A4A"/>
<path d="M5.78757 7.77719H8.51917C9.13397 7.93559 9.14317 8.80119 8.52557 8.96639L5.78757 8.95999C5.18517 8.74479 5.19117 7.99319 5.78757 7.77719Z" fill="#4A4A4A"/>
<path d="M5.50203 11.1892C5.74843 10.9212 6.63523 10.9272 6.95963 11.0404C7.54963 11.2464 7.46923 12.0952 6.89323 12.2124C6.72163 12.2472 5.92963 12.2424 5.76643 12.1952C5.34763 12.074 5.20403 11.5132 5.50203 11.1892Z" fill="#4A4A4A"/>
</svg>