<svg width="20" height="20" viewBox="0 0 20 20" fill="none" xmlns="http://www.w3.org/2000/svg">
<path d="M3.94156 7.4748C4.23956 7.4444 4.53556 7.4812 4.81516 7.59L9.96356 9.724C10.1452 9.7012 10.3172 9.6096 10.4868 9.5444C12.0244 8.9548 13.638 8.082 15.1776 7.5796C15.9868 7.3156 16.79 7.5292 17.3156 8.2064C17.6116 8.588 18.6804 10.4872 18.8064 10.9192C18.9692 11.478 18.8816 12.034 18.5608 12.5196C18.1568 13.1312 17.4504 13.296 16.8512 13.6516C16.7616 14.5068 16.9748 15.402 16.6564 16.2204C16.3852 16.9172 15.8844 17.3228 15.2236 17.6292C14.2 18.104 12.8492 18.6428 11.782 19.0136C11.0256 19.2768 10.3808 19.3864 9.57156 19.3368C8.47076 19.2688 5.82276 18.132 4.74036 17.6292C4.08396 17.3244 3.57756 16.9136 3.30756 16.2204C2.98916 15.4024 3.20236 14.5072 3.11276 13.6516C2.34316 13.2216 1.51836 13.026 1.19516 12.1052C0.98796 11.5148 1.05676 11.088 1.32116 10.5376C1.61756 9.92 2.10956 9.0428 2.47756 8.4636C2.81996 7.9252 3.28076 7.542 3.94116 7.4748H3.94156ZM8.85356 10.6164L4.23156 8.7176C3.98956 8.664 3.74076 8.8116 3.60556 9.0068C3.27436 9.4844 2.74476 10.4676 2.48876 11.004C2.27996 11.4416 2.21036 11.7276 2.67756 12.0232C3.95076 12.5524 5.23196 13.4712 6.50396 13.9572C6.85756 14.0924 7.08676 14.0512 7.32836 13.7424C7.83316 12.6988 8.39756 11.6824 8.85276 10.6164H8.85356ZM11.1112 10.6164C11.2384 10.9064 11.3688 11.2 11.506 11.486C11.802 12.104 12.2732 13.2196 12.6356 13.7424C12.8488 14.0496 13.1344 14.082 13.46 13.9572C14.7304 13.4712 16.0184 12.5588 17.2864 12.0232C17.7568 11.7256 17.6868 11.4416 17.4752 11.004C17.1512 10.3332 16.6836 9.684 16.3588 9.0068C16.1588 8.7324 15.8708 8.6348 15.5488 8.768L11.1108 10.6164H11.1112ZM9.35956 18.05V12.484L8.28596 14.5436C7.66436 15.2928 6.85196 15.4556 5.95956 15.0864C5.42156 14.8636 4.92356 14.4976 4.37756 14.3136V15.5008C4.37756 15.7812 4.77636 16.2764 5.03716 16.3984C6.24396 16.8304 7.40316 17.4188 8.60996 17.8468C8.70796 17.8816 9.33116 18.0812 9.35996 18.0504L9.35956 18.05ZM15.5872 14.3136C14.7936 14.586 13.942 15.3348 13.0752 15.288C12.5156 15.2576 11.9992 14.9584 11.6628 14.5212L10.6052 12.4844V18.0504C10.9328 18.0044 11.2412 17.882 11.5492 17.7684C12.5296 17.4064 13.9728 16.8896 14.874 16.4228C15.1552 16.2772 15.5872 15.8288 15.5872 15.5012V14.314V14.3136Z" fill="#4A4A4A"/>
<path d="M9.77917 0.662804C10.334 0.598404 10.8812 0.820004 11.206 1.2772C11.3444 1.472 11.5408 2.076 11.712 2.1724C11.8516 2.2508 12.3216 2.26 12.514 2.3044C13.5884 2.5508 14.1052 3.7856 13.4064 4.67961C13.2956 4.8212 12.7836 5.2496 12.7536 5.35C12.6844 5.5832 12.838 5.9916 12.8572 6.2424C12.9508 7.4744 11.786 8.2368 10.668 7.7312C10.51 7.6596 10.146 7.3956 9.99877 7.386C9.85157 7.3764 9.42237 7.6824 9.24197 7.7548C8.14797 8.194 7.02717 7.4716 7.10277 6.2768C7.11997 6.0084 7.28557 5.604 7.21077 5.35C7.18117 5.25 6.66837 4.8208 6.55797 4.67961C5.84877 3.7716 6.38917 2.5296 7.48237 2.2976C7.78917 2.2324 8.18917 2.3068 8.37997 2.0276C8.79157 1.4248 8.83437 0.772804 9.77917 0.663204V0.662804ZM9.93357 1.9036C9.72077 1.9416 9.50637 2.5908 9.37597 2.7892C9.18917 3.074 8.87237 3.3012 8.54317 3.3964C8.27797 3.4732 7.46877 3.4372 7.49197 3.7824C7.50397 3.958 8.01797 4.3536 8.15237 4.5256C8.72077 5.2528 8.38357 5.6188 8.35077 6.3604C8.32197 7.0084 9.26397 6.296 9.53317 6.216C9.88277 6.112 10.114 6.1188 10.46 6.2272C10.7292 6.3116 11.2408 6.7024 11.4636 6.6296C11.7748 6.52801 11.4608 5.7316 11.462 5.4592C11.4636 5.158 11.6276 4.7628 11.8128 4.52601C11.9472 4.3544 12.4612 3.9584 12.4732 3.7828C12.4968 3.4364 11.6832 3.4704 11.422 3.3968C11.084 3.302 10.7612 3.0596 10.5732 2.7664C10.43 2.5428 10.2456 1.848 9.93357 1.9036Z" fill="#4A4A4A"/>
<path d="M18.1848 1.98479C18.7644 1.88999 19.1364 2.50839 18.7956 2.98479C18.6436 3.19719 18.2444 3.31119 18.0132 3.44799C17.2204 3.91599 16.3752 4.55639 15.9564 5.39999C15.7244 5.86719 15.7456 6.66199 15.1016 6.68759C14.6208 6.70679 14.4128 6.30359 14.4764 5.86559C14.692 4.37759 16.1432 3.05119 17.3908 2.35799C17.5608 2.26359 18.0184 2.01199 18.1852 1.98479H18.1848Z" fill="#4A4A4A"/>
<path d="M1.72084 1.98481C1.88884 1.95761 1.96724 1.98161 2.11964 2.03441C3.32364 2.45161 4.88444 3.85681 5.39644 5.02401C5.59604 5.47881 5.97084 6.41881 5.29444 6.64801C4.52404 6.90881 4.47644 6.09401 4.29084 5.62401C3.89804 4.62921 2.95564 3.93481 2.06884 3.40921C1.83604 3.27121 1.50724 3.18961 1.34244 2.96801C1.07164 2.60441 1.27964 2.05681 1.72124 1.98521L1.72084 1.98481Z" fill="#4A4A4A"/>
<path d="M5.72636 1.88399C5.14516 2.51479 4.20716 1.56039 4.84316 0.981188C5.41836 0.457188 6.26756 1.29679 5.72636 1.88399Z" fill="#4A4A4A"/>
</svg>