<svg width="20" height="20" viewBox="0 0 20 20" fill="none" xmlns="http://www.w3.org/2000/svg">
<g clip-path="url(#clip0_2431_103)">
<path d="M13.8804 6.2152C14.4828 6.376 14.8508 6.774 15.192 7.2672C15.2836 7.2832 16.5172 6.3576 16.744 6.2432C17.396 5.9152 17.966 6.4788 17.664 7.1228C17.1228 7.6372 16.4168 7.9888 15.8096 8.4268C16.1704 9.358 16.3904 10.3048 16.4628 11.3032C16.5416 11.37 18.2212 11.2656 18.528 11.3172C19.2196 11.4336 19.2412 12.5284 18.4184 12.6012C18.1276 12.6268 16.5088 12.5512 16.4156 12.6172C16.3108 13.396 16.1036 14.1736 15.8208 14.916L17.664 16.7848C17.9852 17.3532 17.386 17.9816 16.8 17.6892C16.3408 17.4596 15.6928 16.4716 15.2276 16.1524C15.1936 16.1292 15.188 16.096 15.1268 16.1128C15.042 16.3244 14.8676 16.5548 14.7212 16.7376C13.7552 17.9428 12.2416 18.8196 10.6996 19.0148C8.4 19.306 6.0312 18.0672 4.8496 16.1124C4.7968 16.1012 4.7804 16.1484 4.7488 16.1732C4.27 16.546 3.7004 17.3888 3.2284 17.6808C2.6512 18.0384 1.9756 17.3632 2.3336 16.786L4.1464 14.964C4.1824 14.93 4.1848 14.898 4.178 14.8516C4.1548 14.6912 3.936 14.2416 3.8724 14.0224C3.738 13.558 3.6616 13.0804 3.5724 12.606L1.436 12.5824C0.780404 12.4252 0.803603 11.4296 1.468 11.318C1.7748 11.2664 3.4548 11.3708 3.5332 11.304C3.6056 10.3056 3.826 9.3588 4.1864 8.4276C3.6928 8.0292 2.9468 7.706 2.4872 7.2916C1.8888 6.7524 2.4736 5.8524 3.252 6.244C3.4788 6.358 4.7124 7.284 4.804 7.268C5.1452 6.7748 5.5132 6.3768 6.1156 6.216C6.0924 5.0516 6.6092 3.986 7.448 3.2052C7.32 2.6424 6.202 1.3872 7.1592 1.0216C8.0516 0.680798 8.204 2.024 8.6104 2.5032C9.3784 2.2416 10.0916 2.2012 10.8856 2.3652C11.0348 2.396 11.3508 2.5688 11.4456 2.4416C11.78 1.994 12.0492 0.495198 12.9424 1.0756C13.704 1.5704 12.6664 2.6156 12.546 3.2052C13.3956 3.9804 13.8984 5.0536 13.8784 6.216L13.8804 6.2152ZM12.5828 6.14C12.5932 5.1244 11.9564 4.1552 11.0228 3.7636C9.2936 3.038 7.4232 4.2812 7.4148 6.14H12.5828ZM9.3528 7.432H6.5064C6.1956 7.432 5.806 8.1288 5.6716 8.374C4.7168 10.116 4.5708 12.194 5.2444 14.0636C5.886 15.844 7.404 17.4632 9.3524 17.6876V7.432H9.3528ZM10.6448 17.6876C12.5928 17.4664 14.112 15.842 14.7528 14.0636C15.426 12.1952 15.2792 10.1144 14.3256 8.374C14.1892 8.1248 13.8036 7.432 13.4908 7.432H10.6444V17.6876H10.6448Z" fill="#4A4A4A"/>
</g>
<defs>
<clipPath id="clip0_2431_103">
<rect width="20" height="20" fill="white"/>
</clipPath>
</defs>
</svg>