<svg width="20" height="20" viewBox="0 0 20 20" fill="none" xmlns="http://www.w3.org/2000/svg">
<g clip-path="url(#clip0_2431_193)">
<path d="M6.47196 0.988786C8.71556 0.854386 11.0612 1.06639 13.3156 0.975586C20.6604 1.33559 18.676 8.24119 18.9676 13.366C18.5988 20.6992 11.7452 18.73 6.61636 19.0184C-0.776042 18.6672 1.21756 11.7936 0.924758 6.62799C1.10356 3.08079 2.91876 1.20159 6.47196 0.988786ZM6.58996 2.24919C3.61356 2.42799 2.33436 3.77799 2.18516 6.74599C2.26996 8.88999 2.07796 11.1132 2.18516 13.248C2.33596 16.244 3.65516 17.5952 6.65756 17.756C8.81356 17.8716 11.068 17.6708 13.2344 17.756C15.7716 17.62 17.2512 16.6728 17.6208 14.068C17.6744 11.674 17.8328 9.09999 17.7048 6.70879C17.544 3.70479 16.1952 2.38719 13.1968 2.23639C11.0204 2.32439 8.75596 2.11919 6.58956 2.24959L6.58996 2.24919Z" fill="#4A4A4A"/>
<path d="M13.0968 9.4456L10.6756 11.8492C10.4268 12.094 10.0304 12.1352 9.76722 11.8896C9.47482 11.6168 9.07762 10.848 8.81442 10.48C8.79482 10.4528 8.82282 10.4128 8.74642 10.4312L6.69802 12.4792C6.06562 13.1204 5.14722 12.3588 5.71202 11.6508C6.63202 10.8916 7.48882 9.6632 8.40962 8.952C9.36162 8.2168 9.75722 9.974 10.3136 10.3856C10.9936 9.866 11.4988 9.1476 12.152 8.598L11.6992 8.4216C11.2608 8.1656 11.3664 7.42 11.8364 7.2976C12.3468 7.1644 13.19 7.38 13.7372 7.25C14.0572 7.2824 14.32 7.4764 14.3584 7.8108C14.4056 8.2256 14.3972 9.1612 14.36 9.5848C14.2796 10.4964 13 10.3404 13.0976 9.4452L13.0968 9.4456Z" fill="#4A4A4A"/>
</g>
<defs>
<clipPath id="clip0_2431_193">
<rect width="20" height="20" fill="white"/>
</clipPath>
</defs>
</svg>