<svg width="20" height="20" viewBox="0 0 20 20" fill="none" xmlns="http://www.w3.org/2000/svg">
<g clip-path="url(#clip0_2431_228)">
<path d="M19.1216 13.32C19.1416 13.5 19.1432 13.9268 19.1216 14.1048C18.944 15.5828 17.6064 16.76 16.1468 16.8532C14.862 16.9356 13.4868 16.792 12.1924 16.8476C11.3904 16.7512 11.3512 15.6116 12.1256 15.4328C13.418 15.3376 14.8308 15.5312 16.1088 15.4236C17.0388 15.3456 17.7648 14.4848 17.6948 13.5516C17.6372 12.7816 16.7808 11.9396 16.4696 11.246C16.0924 10.4052 17.0868 9.80162 17.6392 10.432C17.9408 10.776 18.81 12.2536 18.9528 12.6852C19.0052 12.8444 19.1044 13.1652 19.1212 13.3192L19.1216 13.32Z" fill="#4A4A4A"/>
<path d="M11.03 19.1352H10.7092C10.5816 19.0708 10.4812 19.014 10.3696 18.922C9.08396 17.8616 7.77596 16.284 9.10596 14.6588C9.36276 14.3448 10.0944 13.598 10.4068 13.3564C11.1328 12.7956 11.9932 13.6484 11.4044 14.3904C11.0084 14.8896 9.97036 15.5304 9.99356 16.192C10.0148 16.7892 11.0316 17.452 11.4044 17.9216C11.788 18.4048 11.5984 18.9508 11.0296 19.1352H11.03Z" fill="#4A4A4A"/>
<path d="M3.7488 8.58359C4.4132 8.47039 4.8004 9.09799 4.5 9.69199C4.0136 10.6544 3.2228 11.652 2.674 12.6096C2.3344 13.2016 2.1684 13.6044 2.4128 14.292C3.0168 15.9904 5.2204 15.2768 6.592 15.4248C7.4036 15.5124 7.4676 16.7712 6.522 16.8532C5.7024 16.924 3.6912 16.9304 2.9556 16.674C1.6572 16.2216 0.775997 14.8136 0.869597 13.4432C0.969997 11.9728 2.7036 10.1844 3.3368 8.84839C3.4256 8.72719 3.602 8.60839 3.7492 8.58359H3.7488Z" fill="#4A4A4A"/>
<path d="M9.70399 0.879588C12.638 0.619588 13.3744 3.90959 14.8148 5.76799C15.1248 6.50559 14.2704 7.13079 13.6668 6.59599L11.3144 2.88559C10.7676 2.26479 9.86399 2.11799 9.14039 2.52719C8.35119 2.97319 7.98479 4.27759 7.39439 4.91799C6.83919 5.51999 5.87919 4.89199 6.21159 4.12639C6.38319 3.73079 6.93879 2.94079 7.20159 2.54839C7.83079 1.60919 8.51639 0.984388 9.70439 0.879188L9.70399 0.879588Z" fill="#4A4A4A"/>
<path d="M4.32125 5.87398C5.24765 5.77878 6.13885 6.22358 6.60285 7.02998C6.82645 7.41838 7.17845 8.84718 7.21525 9.30678C7.28605 10.1816 6.12245 10.4092 5.83445 9.65398C5.63405 9.12838 5.60205 8.03598 5.29045 7.62958C4.60165 6.73158 3.09485 8.04318 2.33445 7.62718C1.85685 7.36598 1.85605 6.64358 2.33445 6.38318C2.59805 6.23958 3.98725 5.90838 4.32085 5.87398H4.32125Z" fill="#4A4A4A"/>
<path d="M16.6528 5.26561C17.1588 5.17801 17.552 5.55281 17.5176 6.05881C17.4916 6.44121 17.1808 7.66601 17.0356 8.03881C16.6824 8.94641 15.7284 9.55681 14.7536 9.50361C14.4204 9.48521 12.9072 9.13081 12.6364 8.98281C12.2944 8.79561 12.204 8.43721 12.3388 8.08321C12.7396 7.03001 14.4308 8.32361 15.2196 8.00561C16.2156 7.60401 15.6644 5.43641 16.6524 5.26561H16.6528Z" fill="#4A4A4A"/>
</g>
<defs>
<clipPath id="clip0_2431_228">
<rect width="20" height="20" fill="white"/>
</clipPath>
</defs>
</svg>