<svg width="20" height="20" viewBox="0 0 20 20" fill="none" xmlns="http://www.w3.org/2000/svg">
<path d="M16.63 4.5716V17.1744C16.63 18.0516 15.502 19.0728 14.616 19.0412L5.27517 19.0348C4.43077 19.0144 3.36797 18.0164 3.36797 17.1744V4.5716H2.03037C2.01477 4.5716 1.85437 4.4952 1.82477 4.4756C1.38957 4.1928 1.50997 3.51 2.00957 3.3824L17.8924 3.3656C18.3456 3.412 18.5948 3.918 18.3424 4.306C18.2872 4.3912 18.0616 4.5716 17.9676 4.5716H16.63ZM15.4244 4.5716H4.57317V17.0992C4.57317 17.3916 5.10717 17.8612 5.42117 17.8336L14.5024 17.8356C14.8736 17.882 15.424 17.4236 15.424 17.0616V4.5716H15.4244Z" fill="#4A4A4A"/>
<path d="M7.46481 0.963608L12.5012 0.958008C13.2036 1.09801 13.1772 2.06201 12.4668 2.16041L7.49681 2.15681C6.83001 2.02721 6.80641 1.12841 7.46481 0.963608Z" fill="#4A4A4A"/>
<path d="M7.87922 6.99199C8.26962 6.92879 8.57002 7.17799 8.60642 7.56559L8.60482 14.8764C8.48882 15.5988 7.50682 15.6084 7.39722 14.8784L7.39842 7.49079C7.42642 7.25879 7.65362 7.02879 7.87922 6.99199Z" fill="#4A4A4A"/>
<path d="M11.8728 6.99199C12.2564 6.92959 12.5768 7.17719 12.6 7.56519L12.5984 14.876C12.494 15.6228 11.4624 15.5972 11.3912 14.8396L11.3928 7.52879C11.4212 7.28119 11.6208 7.03239 11.8728 6.99159V6.99199Z" fill="#4A4A4A"/>
</svg>