<svg width="20" height="20" viewBox="0 0 20 20" fill="none" xmlns="http://www.w3.org/2000/svg">
<path d="M10.4944 0.961185C12.7792 1.16078 14.7396 2.97278 15.1828 5.20078C15.3916 6.25118 15.2028 7.42878 15.2748 8.50158C15.2924 8.55398 15.8468 8.70878 15.9664 8.76478C16.7824 9.14798 17.3904 9.99358 17.5244 10.884C17.4332 12.7256 17.6792 14.7436 17.5356 16.5652C17.4336 17.8572 16.31 18.926 15.0356 19.0508L5.06235 19.0572C3.71195 18.964 2.59955 17.9156 2.46275 16.5652C2.57235 14.7512 2.32115 12.7736 2.46275 10.9788C2.53435 10.0696 3.18475 9.19158 3.98955 8.79318C4.23475 8.67198 4.49755 8.62238 4.72315 8.50118C4.78595 7.19758 4.56555 5.86838 4.96555 4.60838C5.57635 2.68278 7.44155 1.15278 9.46835 0.960785C9.73355 0.935585 10.2276 0.937585 10.4944 0.960785V0.961185ZM13.7844 8.48878C13.7424 6.95118 14.0276 5.46238 13.1204 4.11638C11.5884 1.84318 8.15035 1.95558 6.75155 4.30798C5.98875 5.59078 6.26315 7.06358 6.21395 8.48878H13.7844ZM5.07395 10.018C4.41155 10.1184 4.00555 10.6036 3.95035 11.2632C4.04675 12.8908 3.81915 14.6708 3.95035 16.2804C4.00395 16.94 4.42235 17.4604 5.09835 17.5368H14.9C15.6 17.4532 16 16.9248 16.0496 16.2468C16.1672 14.6488 15.9576 12.9096 16.0496 11.2964C15.9956 10.5772 15.5608 10.0764 14.8292 10.0064L5.07395 10.0176V10.018Z" fill="#4A4A4A"/>
<path d="M9.31958 10.7608C10.3716 10.654 11.7444 10.6868 12.1584 11.8624C12.3252 12.3364 12.3076 13.8952 12.2644 14.4448C12.1904 15.3888 11.4712 15.9932 10.5492 16.0532C9.51638 16.1204 8.24558 16.0916 7.83998 14.9396C7.66958 14.4556 7.69398 12.9196 7.73358 12.3568C7.79478 11.4864 8.46398 10.8476 9.31958 10.7608ZM9.29998 14.488C9.33918 14.5268 9.42958 14.5288 9.48478 14.5332C9.64398 14.546 10.5456 14.5528 10.6352 14.5132C10.6688 14.4984 10.7 14.4544 10.7236 14.4248V12.3768C10.7 12.3472 10.6688 12.3032 10.6352 12.2884C10.5452 12.2488 9.64198 12.2556 9.48478 12.2684C9.42518 12.2732 9.32398 12.274 9.28878 12.3288C9.25678 12.594 9.20718 14.396 9.29998 14.488Z" fill="#4A4A4A"/>
</svg>