<svg width="20" height="20" viewBox="0 0 20 20" fill="none" xmlns="http://www.w3.org/2000/svg">
<path d="M5.50439 1.18201C8.41399 1.28441 11.4644 1.00841 14.3584 1.16921C16.7352 1.30121 18.648 3.19761 18.8248 5.56601C18.6864 8.46881 19.0108 11.5456 18.8248 14.4284C18.6752 16.7464 16.7468 18.6736 14.43 18.8232C11.5472 19.0092 8.47039 18.6848 5.56759 18.8232C3.23639 18.6592 1.33479 16.76 1.17279 14.4284C1.30279 11.5308 0.998792 8.48081 1.17079 5.60081C1.30919 3.28761 3.19119 1.35801 5.50439 1.18161V1.18201ZM5.54119 2.35881C3.81879 2.53241 2.45399 3.94201 2.34719 5.67441C2.17239 8.51441 2.48159 11.5332 2.34959 14.3916C2.49599 16.1152 3.88199 17.4928 5.60439 17.6464H14.3932C16.116 17.4996 17.498 16.114 17.648 14.3916V5.60281C17.5008 3.88161 16.1164 2.49561 14.3932 2.34801L5.54159 2.35841L5.54119 2.35881Z" fill="#4A4A4A"/>
<path d="M11.2451 7.72079L5.34674 7.71639C4.53354 7.67879 4.44394 6.5908 5.30994 6.504L11.2999 6.50599C11.8419 5.05039 13.8063 4.68479 14.8151 5.89799C15.5819 6.82039 15.4091 8.16959 14.4607 8.88799C13.3043 9.76359 11.5615 9.12439 11.2455 7.72119L11.2451 7.72079ZM13.0411 6.3652C12.0391 6.5356 12.1803 8.13679 13.2491 8.11759C14.4619 8.09599 14.3763 6.1376 13.0411 6.3652Z" fill="#4A4A4A"/>
<path d="M8.75166 12.2736L14.6501 12.278C15.4717 12.312 15.5389 13.4044 14.6869 13.4904L8.69686 13.4884C8.11726 15.04 6.00166 15.312 5.05526 13.9288C4.30846 12.8372 4.78966 11.3208 6.01686 10.8516C7.18846 10.4036 8.45886 11.06 8.75166 12.2732V12.2736ZM6.71846 11.8812C5.53566 11.9456 5.63406 13.8132 6.92486 13.6348C7.97046 13.4904 7.82286 11.8208 6.71846 11.8812Z" fill="#4A4A4A"/>
</svg>