<svg width="20" height="20" viewBox="0 0 20 20" fill="none" xmlns="http://www.w3.org/2000/svg">
<path d="M0.529541 12.0028V11.0772C0.619541 10.8316 0.663541 10.5712 0.760341 10.3268C1.15154 9.33837 2.06914 8.53317 3.11994 8.33517C3.06594 7.36437 3.18114 6.46597 3.77274 5.67357C4.54954 4.63317 5.85274 4.16957 7.12234 4.42877C7.40314 4.48597 7.66794 4.61157 7.93514 4.70797C9.06274 1.84277 12.5931 0.701172 15.2275 2.32277C16.8771 3.33797 17.7587 5.15637 17.6451 7.08877C20.4991 9.03917 19.9091 13.6392 16.5555 14.6428C16.0331 14.7992 15.3707 14.7864 15.3043 14.0956C15.2339 13.3636 15.8099 13.354 16.2923 13.158C18.2455 12.3636 18.6215 9.71117 16.9307 8.43277C16.6055 8.18677 16.2103 8.10117 16.1559 7.61517C16.0419 6.59757 16.2899 6.02797 15.7679 5.00357C14.3183 2.15837 10.1067 2.54557 9.17594 5.59717C9.05274 6.00117 9.09594 6.41237 8.65274 6.62917C8.03554 6.93117 7.81114 6.38557 7.39114 6.12277C6.21554 5.38757 4.70834 6.16837 4.60154 7.53997C4.56354 8.02477 4.72274 9.03997 4.47074 9.40877C4.20954 9.79117 3.87154 9.69397 3.48994 9.76117C1.73394 10.0696 1.47394 12.5792 3.13354 13.232C3.48274 13.3696 3.65194 13.3056 3.99114 13.3372C5.08114 13.438 5.03474 14.7848 3.99114 14.854C2.62834 14.9444 1.25114 14.0532 0.760341 12.7908C0.660341 12.5336 0.623541 12.2612 0.529541 12.0036V12.0028Z" fill="#4A4A4A"/>
<path d="M9.30802 10.4452L7.10482 12.6304C6.40522 13.0688 5.62002 12.2984 6.07002 11.5956C7.07082 10.7784 8.38922 8.67082 9.73242 8.55522C11.2552 8.42442 12.0684 9.67002 13.01 10.6496C13.2472 10.8964 13.9496 11.4984 14.0392 11.768C14.2676 12.4552 13.5548 13 12.9384 12.6464L10.7888 10.5188V17.8324C10.7888 17.8572 10.6832 18.0692 10.6568 18.1076C10.3648 18.5336 9.70522 18.5196 9.42442 18.0856C9.40322 18.0528 9.30762 17.8488 9.30762 17.8324V10.4448L9.30802 10.4452Z" fill="#4A4A4A"/>
</svg>